<svg width="200" height="90" viewBox="400 100 10 1100" fill="none" xmlns="http://www.w3.org/2000/svg">
<path d="M96.363 126.634L182.881 197.452L239.899 102.262L199.928 205.869L308.54 231.4L197.319 224.615L207.427 335.583L178.659 227.783L76.2943 270.835L169.736 210.995L96.363 126.634Z" fill="#0A2427"/>
<path d="M295.187 248.88L370.937 253.359L367.424 183.258L388.157 251.188L459.085 228.222L396.15 265.727L443.499 321.633L383.869 276.882L342.204 334.401L368.287 269.239L295.187 248.88Z" fill="#0A2427"/>
<path d="M639.835 30.2649L640.061 90.3699L703.432 111.372L640.711 126.034L642.68 186.227L603.69 135.183L541.536 151.383L580.16 105.174L539.778 54.9929L602.638 77.4776L639.835 30.2649Z" fill="#0A2427"/>
<path d="M347.747 46.4805L349.411 105.695L411.343 127.587L350.097 143.287L350.591 202.442L311.074 152.931L249.448 167.598L286.272 121.299L247.69 71.2085L309.965 92.1056L347.747 46.4805Z" fill="#0A2427"/>
<path d="M630.123 164.561L629.964 203.1L665.416 216.146L629.353 228.407L627.652 266.929L605.523 235.968L569.02 246.73L591.406 215.334L570.547 183.463L606.511 195.021L630.123 164.561Z" fill="#0A2427"/>
<path d="M475.011 65.5087L455.097 98.8729L479.832 127.825L442.261 119.953L421.756 152.968L418.449 114.739L381.042 106.191L416.569 90.4354L413.955 52.1377L439.219 80.6297L475.011 65.5087Z" fill="#0A2427"/>
<path d="M302.569 242.914L284.786 276.067L307.389 305.23L270.633 299.31L249.313 330.373L244.379 293.561L208.599 283.596L242.306 266.765L241.513 229.543L267.279 255.953L302.569 242.914Z" fill="#0A2427"/>
<path d="M803.286 102.901L770.053 137.581L808.107 165.217L765.445 145.149L750.031 190.36L756.897 143.277L709.317 143.583L756.223 134.552L742.23 89.5298L764.353 131.032L803.286 102.901Z" fill="#0A2427"/>
<path d="M116.387 153.29L98.0713 186.496L121.208 215.607L84.2475 209.199L63.1313 240.75L58.6041 203.583L22.4172 193.972L56.5793 177.41L55.3308 139.919L80.9713 166.85L116.387 153.29Z" fill="#0A2427"/>
<path d="M205.567 88.3616L185.591 104.881L192.99 129.713L171.106 115.831L149.765 130.547L156.216 105.448L135.627 89.7112L161.498 88.0806L170.114 63.6393L179.653 87.7303L205.567 88.3616Z" fill="#0A2427"/>
<path d="M739.896 378.561L727.339 271.209L622.267 292.771L719.664 247.561L666.85 153.485L739.602 232.896L812.032 153.192L759.599 247.48L857.178 292.296L752.02 271.159L739.896 378.561Z" fill="#0A2427"/>
<path d="M601.658 294.879L519.466 224.689L457.071 311.935L497.761 212.565L395.072 179.48L502.412 188.256L501.342 80.5625L526.992 185.356L629.02 151.883L537.532 207.873L601.658 294.879Z" fill="#0A2427"/>
</svg>
