<svg width="1224" height="154" viewBox="0 0 1224 154" fill="none" xmlns="http://www.w3.org/2000/svg">
<path d="M26.1787 15.4043C27.5999 15.4043 28.3105 16.0186 28.3105 17.2471C28.3105 18.1143 27.7926 18.8971 26.7568 19.5957C24.8538 20.9447 23.9023 22.3057 23.9023 23.6787C23.9023 24.4977 24.4564 25.5094 25.5645 26.7139C26.6966 27.8942 27.2627 29.1468 27.2627 30.4717C27.2627 31.7965 26.8532 32.8444 26.0342 33.6152C25.2393 34.3861 24.1673 34.7715 22.8184 34.7715C21.4935 34.7715 20.3493 34.1813 19.3857 33.001C18.4463 31.8206 17.9766 30.4596 17.9766 28.918C17.9766 24.7266 19.0967 21.2699 21.3369 18.5479C22.3968 17.2471 23.3604 16.404 24.2275 16.0186C25.1188 15.609 25.7692 15.4043 26.1787 15.4043ZM39.1504 15.4043C40.5716 15.4043 41.2822 16.0186 41.2822 17.2471C41.2822 18.1143 40.7643 18.8971 39.7285 19.5957C37.8255 20.9447 36.874 22.3057 36.874 23.6787C36.874 24.4977 37.4281 25.5094 38.5361 26.7139C39.6683 27.8942 40.2344 29.1468 40.2344 30.4717C40.2344 31.7965 39.8249 32.8444 39.0059 33.6152C38.2109 34.3861 37.139 34.7715 35.79 34.7715C34.4652 34.7715 33.321 34.1813 32.3574 33.001C31.418 31.8206 30.9482 30.4596 30.9482 28.918C30.9482 24.7266 32.0684 21.2699 34.3086 18.5479C35.3685 17.2471 36.332 16.404 37.1992 16.0186C38.0905 15.609 38.7409 15.4043 39.1504 15.4043ZM62.8896 67.7607C63.4919 67.833 64.1784 67.8932 64.9492 67.9414L67.2979 68.0137C68.5986 68.0859 70.5257 68.1221 73.0791 68.1221C84.9788 68.1221 90.9287 63.8102 90.9287 55.1865C90.9287 51.6696 89.6038 48.9958 86.9541 47.165C84.3044 45.3343 80.7513 44.4189 76.2949 44.4189H62.8896V67.7607ZM72.9707 39.0713C78.9447 39.0713 82.5218 37.4333 83.7021 34.1572C84.0876 33.0973 84.2803 31.9772 84.2803 30.7969C84.2803 28.7012 83.4613 26.8825 81.8232 25.3408C80.1852 23.7992 78.0052 22.8958 75.2832 22.6309C72.5853 22.3418 70.056 22.1973 67.6953 22.1973C65.3587 22.1973 63.7568 22.2334 62.8896 22.3057V39.0713H72.9707ZM85.6172 40.9502C93.8073 42.3232 97.9023 47.3096 97.9023 55.9092C97.9023 58.1012 97.4085 60.3053 96.4209 62.5215C95.4333 64.7376 93.8916 66.6647 91.7959 68.3027C87.3154 71.7956 80.7152 73.542 71.9951 73.542C71.0798 73.542 70.068 73.5059 68.96 73.4336L61.9863 73.0723C61.071 73.0241 60.1556 73 59.2402 73L52.1582 73.4697C49.1953 73.4697 47.7139 72.3857 47.7139 70.2178C47.7139 68.0257 49.4723 66.9297 52.9893 66.9297C54.0251 66.9297 55.097 66.9779 56.2051 67.0742V22.9922L55.0488 23.1367C53.2422 23.4499 51.7367 23.6064 50.5322 23.6064C49.3519 23.6064 48.3883 23.3294 47.6416 22.7754C46.8949 22.1973 46.5215 21.4385 46.5215 20.499C46.5215 18.7165 47.9788 17.6204 50.8936 17.2109C53.0133 16.946 57.5059 16.8135 64.3711 16.8135C71.2363 16.8135 75.8252 17.0062 78.1377 17.3916C82.4014 18.0902 85.6774 19.6198 87.9658 21.9805C90.2542 24.3171 91.3984 27.1354 91.3984 30.4355C91.3984 33.7357 90.3385 36.5781 88.2188 38.9629C87.4961 39.7578 86.6289 40.4202 85.6172 40.9502ZM111.344 51.1758L113.837 51.248C114.656 51.2721 117.282 51.2842 121.714 51.2842C126.146 51.2842 129.049 50.9229 130.422 50.2002C131.795 49.4775 132.481 48.3815 132.481 46.9121C132.481 45.4427 131.65 44.1419 129.988 43.0098C128.326 41.8776 126.483 41.3115 124.46 41.3115C120.919 41.3115 118.004 42.2148 115.716 44.0215C113.427 45.8281 111.97 48.2129 111.344 51.1758ZM135.589 61.6182C137.709 61.6182 138.769 62.5697 138.769 64.4727C138.769 65.3398 138.431 66.3154 137.757 67.3994C137.106 68.4593 136.143 69.4469 134.866 70.3623C131.879 72.4821 127.965 73.542 123.123 73.542C118.305 73.542 114.126 71.916 110.585 68.6641C108.826 67.0501 107.417 65.0628 106.357 62.7021C105.298 60.3415 104.768 57.752 104.768 54.9336C104.768 49.4414 106.574 44.8525 110.188 41.167C113.801 37.4574 118.354 35.6025 123.846 35.6025C128.423 35.6025 132.048 36.7227 134.722 38.9629C137.42 41.179 138.769 43.9131 138.769 47.165C138.769 50.417 137.456 52.8499 134.83 54.4639C132.204 56.0537 127.218 56.8486 119.871 56.8486C117.92 56.8486 115.029 56.7764 111.199 56.6318C111.633 60.3656 113.078 63.1719 115.535 65.0508C117.992 66.9056 120.558 67.833 123.231 67.833C125.905 67.833 128.013 67.5439 129.555 66.9658C131.12 66.3636 132.241 65.3278 132.915 63.8584C133.614 62.3649 134.505 61.6182 135.589 61.6182ZM204.819 57.9688C200.917 57.222 197.448 56.8486 194.413 56.8486C191.402 56.8486 189.174 57.4508 187.729 58.6553C186.307 59.8356 185.597 61.1846 185.597 62.7021C185.597 64.2197 186.259 65.4723 187.584 66.46C188.909 67.4235 190.764 67.9053 193.148 67.9053C198.038 67.9053 201.929 66.3275 204.819 63.1719V57.9688ZM205.65 68.7725C203.001 71.9521 198.604 73.542 192.462 73.542C188.367 73.542 185.103 72.6025 182.67 70.7236C180.261 68.8447 179.057 66.3034 179.057 63.0996C179.057 57.776 182.007 54.3073 187.909 52.6934C189.909 52.1634 192.486 51.8984 195.642 51.8984C198.821 51.8984 201.881 52.2598 204.819 52.9824V49.0078C204.819 45.0332 203.229 42.6003 200.05 41.709C198.918 41.3717 197.4 41.2031 195.497 41.2031C191.426 41.2031 189.077 42.2871 188.451 44.4551C188.066 45.6113 187.379 46.4424 186.392 46.9482C185.958 47.165 185.464 47.2734 184.91 47.2734C182.622 47.2734 181.478 46.0449 181.478 43.5879C181.478 41.4922 182.851 39.6374 185.597 38.0234C188.367 36.4095 191.872 35.6025 196.111 35.6025C203.29 35.6025 207.927 38.1439 210.022 43.2266C210.721 44.9609 211.07 47.0085 211.07 49.3691V58.7275C211.07 62.0036 211.203 64.2077 211.468 65.3398C211.733 66.4479 212.227 67.2308 212.949 67.6885C214.226 68.5075 214.864 69.459 214.864 70.543C214.864 72.5423 213.6 73.542 211.07 73.542C208.565 73.542 206.758 71.9521 205.65 68.7725ZM239.435 65.2676C241 65.2676 241.783 66.1829 241.783 68.0137C241.783 69.3867 240.892 70.6514 239.109 71.8076C237.351 72.9639 235.279 73.542 232.895 73.542C228.872 73.542 226.186 71.639 224.837 67.833C224.379 66.5322 224.15 64.9906 224.15 63.208V24.1123C224.15 23.1729 224.066 22.5827 223.897 22.3418C223.753 22.1009 223.536 21.9805 223.247 21.9805L220.104 22.4141C219.164 22.4141 218.381 22.1732 217.755 21.6914C217.153 21.2096 216.852 20.5352 216.852 19.668C216.852 17.8372 218.152 16.7894 220.754 16.5244C222.44 16.3799 223.753 16.1631 224.692 15.874C225.656 15.5609 226.632 15.4043 227.619 15.4043C229.498 15.4043 230.438 16.5605 230.438 18.873V59.0889C230.438 62.4613 230.606 64.6172 230.943 65.5566C231.281 66.472 231.654 67.0742 232.063 67.3633C232.473 67.6523 233.099 67.7969 233.942 67.7969C234.81 67.7969 235.58 67.4958 236.255 66.8936C236.953 66.2913 237.495 65.8698 237.881 65.6289C238.266 65.388 238.784 65.2676 239.435 65.2676ZM252.009 54.4277C252.009 58.4023 253.141 61.6302 255.405 64.1113C257.694 66.5924 260.596 67.833 264.113 67.833C267.63 67.833 270.461 66.6647 272.604 64.3281C274.772 61.9915 275.856 58.8721 275.856 54.9697C275.856 48.4899 273.556 44.2624 268.955 42.2871C267.438 41.6367 265.727 41.3115 263.824 41.3115C260.187 41.3115 257.308 42.5039 255.188 44.8887C253.069 47.2493 252.009 50.429 252.009 54.4277ZM245.722 54.8252C245.722 49.3089 247.468 44.7321 250.961 41.0947C254.478 37.4333 258.886 35.6025 264.186 35.6025C269.509 35.6025 273.833 37.3008 277.157 40.6973C280.506 44.0697 282.18 48.5863 282.18 54.2471C282.18 59.8838 280.433 64.5088 276.94 68.1221C273.472 71.7354 269.027 73.542 263.607 73.542C258.212 73.542 253.876 71.7956 250.6 68.3027C247.348 64.8099 245.722 60.3174 245.722 54.8252ZM291.755 73C289.442 73 288.286 72.1087 288.286 70.3262C288.286 69.459 288.647 68.7845 289.37 68.3027C290.093 67.821 291.092 67.5801 292.369 67.5801H295.585V44.0215C295.585 42.5762 295.272 41.8535 294.646 41.8535C294.308 41.8535 293.863 41.9378 293.309 42.1064C292.755 42.2751 292.08 42.3594 291.285 42.3594C290.49 42.3594 289.792 42.1064 289.189 41.6006C288.587 41.0947 288.286 40.4082 288.286 39.541C288.286 37.7103 289.587 36.6624 292.188 36.3975C293.562 36.277 294.838 36.0723 296.019 35.7832C297.223 35.4701 298.283 35.3135 299.198 35.3135C300.957 35.3135 301.836 36.4697 301.836 38.7822V43.5156C302.872 41.2031 304.57 39.3122 306.931 37.8428C309.291 36.3493 311.785 35.6025 314.41 35.6025C319.083 35.6025 322.396 36.7829 324.347 39.1436C326.298 41.5042 327.273 44.6839 327.273 48.6826V67.5801H329.694C332.729 67.5801 334.247 68.5316 334.247 70.4346C334.247 71.109 333.958 71.7113 333.38 72.2412C332.802 72.7471 331.814 73 330.417 73L324.058 72.7832L317.192 73C314.88 73 313.724 72.1087 313.724 70.3262C313.724 69.459 314.085 68.7845 314.808 68.3027C315.53 67.821 316.53 67.5801 317.807 67.5801H320.95V51.0312C320.95 45.9727 319.674 42.9375 317.12 41.9258C316.229 41.5645 315.157 41.3838 313.904 41.3838C311.327 41.3838 308.858 42.3714 306.497 44.3467C304.16 46.3219 302.607 48.8271 301.836 51.8623V67.5801H304.257C307.292 67.5801 308.81 68.5316 308.81 70.4346C308.81 71.109 308.521 71.7113 307.942 72.2412C307.364 72.7471 306.377 73 304.979 73L298.62 72.7832L291.755 73ZM345.629 51.1758L348.122 51.248C348.941 51.2721 351.567 51.2842 355.999 51.2842C360.431 51.2842 363.334 50.9229 364.707 50.2002C366.08 49.4775 366.767 48.3815 366.767 46.9121C366.767 45.4427 365.936 44.1419 364.273 43.0098C362.611 41.8776 360.769 41.3115 358.745 41.3115C355.204 41.3115 352.289 42.2148 350.001 44.0215C347.713 45.8281 346.255 48.2129 345.629 51.1758ZM369.874 61.6182C371.994 61.6182 373.054 62.5697 373.054 64.4727C373.054 65.3398 372.716 66.3154 372.042 67.3994C371.392 68.4593 370.428 69.4469 369.151 70.3623C366.164 72.4821 362.25 73.542 357.408 73.542C352.59 73.542 348.411 71.916 344.87 68.6641C343.112 67.0501 341.702 65.0628 340.643 62.7021C339.583 60.3415 339.053 57.752 339.053 54.9336C339.053 49.4414 340.859 44.8525 344.473 41.167C348.086 37.4574 352.639 35.6025 358.131 35.6025C362.708 35.6025 366.333 36.7227 369.007 38.9629C371.705 41.179 373.054 43.9131 373.054 47.165C373.054 50.417 371.741 52.8499 369.115 54.4639C366.49 56.0537 361.503 56.8486 354.156 56.8486C352.205 56.8486 349.314 56.7764 345.484 56.6318C345.918 60.3656 347.363 63.1719 349.82 65.0508C352.277 66.9056 354.843 67.833 357.517 67.833C360.19 67.833 362.298 67.5439 363.84 66.9658C365.406 66.3636 366.526 65.3278 367.2 63.8584C367.899 62.3649 368.79 61.6182 369.874 61.6182ZM430.288 73L423.495 72.7832C422.483 72.7832 421.725 72.7952 421.219 72.8193L419.629 72.8916C418.424 72.9639 417.365 73 416.449 73C414.113 73 412.944 72.1087 412.944 70.3262C412.944 69.459 413.306 68.7845 414.028 68.3027C414.775 67.821 415.763 67.5801 416.991 67.5801H419.81V44.0215C419.81 42.5762 419.496 41.8535 418.87 41.8535C418.581 41.8535 418.123 41.9378 417.497 42.1064C416.895 42.2751 416.208 42.3594 415.438 42.3594C414.691 42.3594 414.016 42.1064 413.414 41.6006C412.812 41.0947 412.511 40.4082 412.511 39.541C412.511 37.7103 413.812 36.6624 416.413 36.3975C418.027 36.2529 419.34 36.0361 420.352 35.7471C421.387 35.458 422.387 35.3135 423.351 35.3135C425.157 35.3135 426.061 36.4697 426.061 38.7822V67.5801H428.915C431.95 67.5801 433.468 68.5316 433.468 70.4346C433.468 71.109 433.167 71.7113 432.564 72.2412C431.986 72.7471 431.228 73 430.288 73ZM427.397 22.9199C427.397 25.2565 426.41 26.7741 424.435 27.4727C423.881 27.6654 423.098 27.7617 422.086 27.7617C421.074 27.7617 420.147 27.3643 419.304 26.5693C418.461 25.7744 418.039 24.7386 418.039 23.4619C418.039 22.1852 418.473 21.1253 419.34 20.2822C420.231 19.4391 421.387 19.0176 422.809 19.0176C424.254 19.0176 425.374 19.403 426.169 20.1738C426.988 20.9206 427.397 21.8359 427.397 22.9199ZM452.907 73.542C450.812 73.542 448.788 73.3734 446.837 73.0361C445.849 74.7705 444.813 75.6377 443.729 75.6377C442.188 75.6377 441.417 74.9271 441.417 73.5059C441.417 72.2533 441.092 71.085 440.441 70.001C439.815 68.917 439.261 68.0137 438.779 67.291C437.165 64.8822 436.358 63.196 436.358 62.2324C436.358 61.2689 436.635 60.5583 437.189 60.1006C437.743 59.6429 438.358 59.4141 439.032 59.4141C440.357 59.4141 441.549 60.474 442.609 62.5938C443.693 64.6895 444.97 66.0866 446.439 66.7852C447.909 67.4837 450.221 67.833 453.377 67.833C458.026 67.833 461.049 66.5081 462.446 63.8584C462.88 63.0635 463.097 62.1963 463.097 61.2568C463.097 59.3779 462.278 58.0531 460.64 57.2822C459.002 56.4873 456.46 55.9814 453.016 55.7646C449.571 55.5479 447.03 55.1745 445.392 54.6445C440.622 53.0306 438.237 50.1641 438.237 46.0449C438.237 43.5156 439.562 41.2393 442.212 39.2158C444.886 37.1683 448.788 36.1445 453.919 36.1445C455.003 36.1445 456.087 36.2409 457.171 36.4336C456.93 35.7591 456.81 35.193 456.81 34.7354C456.81 34.2777 457.014 33.8561 457.424 33.4707C457.833 33.0612 458.339 32.8564 458.941 32.8564C459.568 32.8564 460.049 33.013 460.387 33.3262C460.724 33.6393 461.109 34.2295 461.543 35.0967C461.977 35.9398 462.808 37.1562 464.036 38.7461C465.265 40.3118 466.023 41.3958 466.312 41.998C466.626 42.5762 466.782 43.2025 466.782 43.877C466.782 44.5514 466.565 45.1175 466.132 45.5752C465.722 46.0329 465.168 46.2617 464.47 46.2617C463.145 46.2617 461.952 45.3825 460.893 43.624C460.363 42.7327 459.592 42.1185 458.58 41.7812C457.568 41.444 455.81 41.2754 453.305 41.2754C450.799 41.2754 448.788 41.7331 447.271 42.6484C445.777 43.5397 445.03 44.5996 445.03 45.8281C445.03 47.0566 445.416 47.9118 446.187 48.3936C447.608 49.3089 449.824 49.8509 452.835 50.0195C458.616 50.3568 462.808 51.3444 465.409 52.9824C468.035 54.6204 469.348 57.0654 469.348 60.3174C469.348 64.4847 467.758 67.7367 464.578 70.0732C461.398 72.3857 457.508 73.542 452.907 73.542ZM565.027 36.3613C566.979 36.3613 567.954 37.1442 567.954 38.71C567.954 39.4808 567.34 40.36 566.111 41.3477C564.907 42.3112 563.919 43.335 563.148 44.4189C562.378 45.5029 561.486 47.3457 560.475 49.9473L552.778 69.9287C552.658 70.29 552.562 70.5911 552.489 70.832C551.743 73.1445 550.273 74.3008 548.081 74.3008C547.118 74.3008 546.238 73.9876 545.443 73.3613C544.648 72.7591 544.094 71.8919 543.781 70.7598C543.733 70.5671 543.649 70.3141 543.528 70.001C543.432 69.6637 543.275 69.1579 543.059 68.4834C542.866 67.8089 542.589 66.9176 542.228 65.8096L535.543 45.9727C531.087 58.9082 528.726 65.7493 528.461 66.4961L526.618 71.5908C525.92 73.3975 524.547 74.3008 522.499 74.3008C520.476 74.3008 519.078 73.3975 518.308 71.5908C518.187 71.3018 518.043 70.9525 517.874 70.543L509.997 49.6943C508.455 45.9606 507.034 43.5277 505.733 42.3955C505.3 42.0101 504.661 41.5042 503.818 40.8779C502.999 40.2275 502.59 39.4085 502.59 38.4209C502.59 37.0479 503.59 36.3613 505.589 36.3613L509.347 36.6143C510.021 36.6143 510.623 36.6022 511.153 36.5781L512.49 36.4697C512.827 36.4456 513.297 36.3854 513.899 36.2891C514.502 36.1927 515.417 36.1445 516.646 36.1445C517.874 36.1445 518.777 36.3734 519.355 36.8311C519.934 37.2887 520.223 37.8548 520.223 38.5293C520.223 40.7214 518.356 41.8174 514.622 41.8174H513.502L522.607 65.8096L530.593 41.8535C531.701 38.5534 533.363 36.9033 535.579 36.9033C536.784 36.9033 537.711 37.2526 538.361 37.9512C539.036 38.6257 539.686 39.9144 540.312 41.8174L548.117 65.8096L557.331 41.8174H555.994C552.26 41.8174 550.394 40.7214 550.394 38.5293C550.394 37.8548 550.683 37.2887 551.261 36.8311C551.863 36.3734 552.742 36.1445 553.898 36.1445L561.233 36.6143L565.027 36.3613ZM588.983 73L582.19 72.7832C581.179 72.7832 580.42 72.7952 579.914 72.8193L578.324 72.8916C577.12 72.9639 576.06 73 575.145 73C572.808 73 571.64 72.1087 571.64 70.3262C571.64 69.459 572.001 68.7845 572.724 68.3027C573.47 67.821 574.458 67.5801 575.687 67.5801H578.938V24.1484C578.938 22.7031 578.649 21.9805 578.071 21.9805C577.83 21.9805 577.59 22.0046 577.349 22.0527L576.518 22.2695C575.867 22.39 575.193 22.4502 574.494 22.4502C573.796 22.4502 573.145 22.2093 572.543 21.7275C571.941 21.2458 571.64 20.5592 571.64 19.668C571.64 17.8613 572.94 16.8255 575.542 16.5605C577.18 16.416 578.517 16.1872 579.553 15.874C580.589 15.5609 581.564 15.4043 582.479 15.4043C584.286 15.4043 585.189 16.5726 585.189 18.9092V43.2988C586.225 41.2031 587.899 39.3965 590.212 37.8789C592.524 36.3613 594.969 35.6025 597.547 35.6025C606.243 35.6025 610.591 39.8421 610.591 48.3213V67.5801H613.012C616.047 67.5801 617.564 68.5316 617.564 70.4346C617.564 71.109 617.275 71.7113 616.697 72.2412C616.119 72.7471 615.36 73 614.421 73L607.556 72.7832C606.544 72.7832 605.785 72.7952 605.279 72.8193L603.689 72.8916C602.533 72.9639 601.473 73 600.51 73C598.197 73 597.041 72.1087 597.041 70.3262C597.041 69.459 597.402 68.7845 598.125 68.3027C598.848 67.821 599.847 67.5801 601.124 67.5801H604.268V50.6699C604.268 45.6113 602.846 42.6484 600.004 41.7812C599.089 41.5163 598.029 41.3838 596.824 41.3838C594.319 41.3838 591.934 42.4196 589.67 44.4912C587.43 46.5387 585.936 49.0801 585.189 52.1152V67.5801H587.61C590.646 67.5801 592.163 68.5316 592.163 70.4346C592.163 71.109 591.862 71.7113 591.26 72.2412C590.682 72.7471 589.923 73 588.983 73ZM628.982 51.1758L631.476 51.248C632.295 51.2721 634.92 51.2842 639.353 51.2842C643.785 51.2842 646.688 50.9229 648.061 50.2002C649.434 49.4775 650.12 48.3815 650.12 46.9121C650.12 45.4427 649.289 44.1419 647.627 43.0098C645.965 41.8776 644.122 41.3115 642.099 41.3115C638.558 41.3115 635.643 42.2148 633.354 44.0215C631.066 45.8281 629.609 48.2129 628.982 51.1758ZM653.228 61.6182C655.347 61.6182 656.407 62.5697 656.407 64.4727C656.407 65.3398 656.07 66.3154 655.396 67.3994C654.745 68.4593 653.782 69.4469 652.505 70.3623C649.518 72.4821 645.604 73.542 640.762 73.542C635.944 73.542 631.765 71.916 628.224 68.6641C626.465 67.0501 625.056 65.0628 623.996 62.7021C622.936 60.3415 622.406 57.752 622.406 54.9336C622.406 49.4414 624.213 44.8525 627.826 41.167C631.439 37.4574 635.992 35.6025 641.484 35.6025C646.061 35.6025 649.687 36.7227 652.36 38.9629C655.058 41.179 656.407 43.9131 656.407 47.165C656.407 50.417 655.094 52.8499 652.469 54.4639C649.843 56.0537 644.857 56.8486 637.51 56.8486C635.559 56.8486 632.668 56.7764 628.838 56.6318C629.271 60.3656 630.717 63.1719 633.174 65.0508C635.631 66.9056 638.196 67.833 640.87 67.833C643.544 67.833 645.652 67.5439 647.193 66.9658C648.759 66.3636 649.879 65.3278 650.554 63.8584C651.252 62.3649 652.144 61.6182 653.228 61.6182ZM686 73L676.642 72.7832C675.558 72.7832 674.763 72.7952 674.257 72.8193L672.667 72.8916C671.463 72.9639 670.403 73 669.487 73C667.151 73 665.982 72.1087 665.982 70.3262C665.982 69.459 666.344 68.7845 667.066 68.3027C667.813 67.821 668.801 67.5801 670.029 67.5801H673.281V44.0215C673.281 42.5762 672.968 41.8535 672.342 41.8535C672.053 41.8535 671.595 41.9378 670.969 42.1064C670.367 42.2751 669.68 42.3594 668.909 42.3594C668.162 42.3594 667.488 42.1064 666.886 41.6006C666.284 41.0947 665.982 40.4082 665.982 39.541C665.982 37.7103 667.283 36.6624 669.885 36.3975C671.499 36.2529 672.812 36.0361 673.823 35.7471C674.859 35.458 675.859 35.3135 676.822 35.3135C678.629 35.3135 679.532 36.4697 679.532 38.7822V44.3467C681.411 40.2035 684.494 37.4935 688.782 36.2168C690.155 35.8073 691.528 35.6025 692.901 35.6025C695.479 35.6025 697.55 36.2168 699.116 37.4453C700.706 38.6497 701.501 40.3841 701.501 42.6484C701.501 44.9128 701.104 46.6471 700.309 47.8516C699.514 49.056 698.454 49.6582 697.129 49.6582C695.057 49.6582 694.021 48.7188 694.021 46.8398C694.021 46.4544 694.058 46.1413 694.13 45.9004L694.419 45.1055C694.636 44.5033 694.744 43.889 694.744 43.2627C694.744 41.8896 693.576 41.2031 691.239 41.2031C688.903 41.2031 686.614 42.528 684.374 45.1777C682.158 47.8275 680.544 51.3203 679.532 55.6562V67.5801H685.386C688.469 67.5801 690.011 68.5316 690.011 70.4346C690.011 71.109 689.71 71.7113 689.107 72.2412C688.529 72.7471 687.493 73 686 73ZM715.123 51.1758L717.616 51.248C718.435 51.2721 721.061 51.2842 725.493 51.2842C729.925 51.2842 732.828 50.9229 734.201 50.2002C735.574 49.4775 736.261 48.3815 736.261 46.9121C736.261 45.4427 735.43 44.1419 733.768 43.0098C732.105 41.8776 730.263 41.3115 728.239 41.3115C724.698 41.3115 721.784 42.2148 719.495 44.0215C717.207 45.8281 715.749 48.2129 715.123 51.1758ZM739.368 61.6182C741.488 61.6182 742.548 62.5697 742.548 64.4727C742.548 65.3398 742.211 66.3154 741.536 67.3994C740.886 68.4593 739.922 69.4469 738.646 70.3623C735.659 72.4821 731.744 73.542 726.902 73.542C722.085 73.542 717.905 71.916 714.364 68.6641C712.606 67.0501 711.197 65.0628 710.137 62.7021C709.077 60.3415 708.547 57.752 708.547 54.9336C708.547 49.4414 710.354 44.8525 713.967 41.167C717.58 37.4574 722.133 35.6025 727.625 35.6025C732.202 35.6025 735.827 36.7227 738.501 38.9629C741.199 41.179 742.548 43.9131 742.548 47.165C742.548 50.417 741.235 52.8499 738.609 54.4639C735.984 56.0537 730.997 56.8486 723.65 56.8486C721.699 56.8486 718.809 56.7764 714.979 56.6318C715.412 60.3656 716.857 63.1719 719.314 65.0508C721.771 66.9056 724.337 67.833 727.011 67.833C729.685 67.833 731.792 67.5439 733.334 66.9658C734.9 66.3636 736.02 65.3278 736.694 63.8584C737.393 62.3649 738.284 61.6182 739.368 61.6182ZM799.782 73L792.989 72.7832C791.978 72.7832 791.219 72.7952 790.713 72.8193L789.123 72.8916C787.919 72.9639 786.859 73 785.943 73C783.607 73 782.438 72.1087 782.438 70.3262C782.438 69.459 782.8 68.7845 783.522 68.3027C784.269 67.821 785.257 67.5801 786.485 67.5801H789.304V44.0215C789.304 42.5762 788.991 41.8535 788.364 41.8535C788.075 41.8535 787.618 41.9378 786.991 42.1064C786.389 42.2751 785.702 42.3594 784.932 42.3594C784.185 42.3594 783.51 42.1064 782.908 41.6006C782.306 41.0947 782.005 40.4082 782.005 39.541C782.005 37.7103 783.306 36.6624 785.907 36.3975C787.521 36.2529 788.834 36.0361 789.846 35.7471C790.882 35.458 791.881 35.3135 792.845 35.3135C794.651 35.3135 795.555 36.4697 795.555 38.7822V67.5801H798.409C801.444 67.5801 802.962 68.5316 802.962 70.4346C802.962 71.109 802.661 71.7113 802.059 72.2412C801.48 72.7471 800.722 73 799.782 73ZM796.892 22.9199C796.892 25.2565 795.904 26.7741 793.929 27.4727C793.375 27.6654 792.592 27.7617 791.58 27.7617C790.568 27.7617 789.641 27.3643 788.798 26.5693C787.955 25.7744 787.533 24.7386 787.533 23.4619C787.533 22.1852 787.967 21.1253 788.834 20.2822C789.725 19.4391 790.882 19.0176 792.303 19.0176C793.748 19.0176 794.868 19.403 795.663 20.1738C796.482 20.9206 796.892 21.8359 796.892 22.9199ZM833.928 43.9854C831.591 42.2028 828.713 41.3115 825.292 41.3115C821.896 41.3115 819.017 42.5521 816.656 45.0332C814.32 47.5143 813.151 50.7663 813.151 54.7891C813.151 58.7878 814.223 61.9674 816.367 64.3281C818.511 66.6647 821.378 67.833 824.967 67.833C828.556 67.833 831.543 66.4479 833.928 63.6777V43.9854ZM834.867 68.9893C832.145 72.0244 828.484 73.542 823.883 73.542C819.282 73.542 815.295 71.8799 811.923 68.5557C808.55 65.2074 806.864 60.7269 806.864 55.1143C806.864 49.4775 808.707 44.8164 812.393 41.1309C816.078 37.4453 820.703 35.6025 826.268 35.6025C829.11 35.6025 831.663 36.2168 833.928 37.4453V24.1123C833.928 23.1729 833.843 22.5827 833.675 22.3418C833.53 22.1009 833.313 21.9805 833.024 21.9805L829.917 22.4141C828.953 22.4141 828.159 22.1732 827.532 21.6914C826.93 21.2096 826.629 20.5352 826.629 19.668C826.629 17.8372 827.942 16.7894 830.567 16.5244C832.35 16.3558 833.675 16.127 834.542 15.8379C835.433 15.5488 836.385 15.4043 837.396 15.4043C839.251 15.4043 840.179 16.5605 840.179 18.873V58.7275C840.179 62.0036 840.311 64.2077 840.576 65.3398C840.841 66.4479 841.335 67.2308 842.058 67.6885C843.31 68.5075 843.937 69.4349 843.937 70.4707C843.937 72.5182 842.696 73.542 840.215 73.542C837.758 73.542 835.975 72.0244 834.867 68.9893ZM856.98 51.1758L859.474 51.248C860.293 51.2721 862.918 51.2842 867.351 51.2842C871.783 51.2842 874.686 50.9229 876.059 50.2002C877.432 49.4775 878.118 48.3815 878.118 46.9121C878.118 45.4427 877.287 44.1419 875.625 43.0098C873.963 41.8776 872.12 41.3115 870.097 41.3115C866.556 41.3115 863.641 42.2148 861.353 44.0215C859.064 45.8281 857.607 48.2129 856.98 51.1758ZM881.226 61.6182C883.345 61.6182 884.405 62.5697 884.405 64.4727C884.405 65.3398 884.068 66.3154 883.394 67.3994C882.743 68.4593 881.78 69.4469 880.503 70.3623C877.516 72.4821 873.602 73.542 868.76 73.542C863.942 73.542 859.763 71.916 856.222 68.6641C854.463 67.0501 853.054 65.0628 851.994 62.7021C850.934 60.3415 850.404 57.752 850.404 54.9336C850.404 49.4414 852.211 44.8525 855.824 41.167C859.438 37.4574 863.99 35.6025 869.482 35.6025C874.059 35.6025 877.685 36.7227 880.358 38.9629C883.056 41.179 884.405 43.9131 884.405 47.165C884.405 50.417 883.092 52.8499 880.467 54.4639C877.841 56.0537 872.855 56.8486 865.508 56.8486C863.557 56.8486 860.666 56.7764 856.836 56.6318C857.27 60.3656 858.715 63.1719 861.172 65.0508C863.629 66.9056 866.194 67.833 868.868 67.833C871.542 67.833 873.65 67.5439 875.191 66.9658C876.757 66.3636 877.877 65.3278 878.552 63.8584C879.25 62.3649 880.142 61.6182 881.226 61.6182ZM919.526 57.9688C915.624 57.222 912.155 56.8486 909.12 56.8486C906.109 56.8486 903.881 57.4508 902.436 58.6553C901.014 59.8356 900.304 61.1846 900.304 62.7021C900.304 64.2197 900.966 65.4723 902.291 66.46C903.616 67.4235 905.471 67.9053 907.855 67.9053C912.745 67.9053 916.636 66.3275 919.526 63.1719V57.9688ZM920.357 68.7725C917.708 71.9521 913.312 73.542 907.169 73.542C903.074 73.542 899.81 72.6025 897.377 70.7236C894.968 68.8447 893.764 66.3034 893.764 63.0996C893.764 57.776 896.715 54.3073 902.616 52.6934C904.616 52.1634 907.193 51.8984 910.349 51.8984C913.528 51.8984 916.588 52.2598 919.526 52.9824V49.0078C919.526 45.0332 917.937 42.6003 914.757 41.709C913.625 41.3717 912.107 41.2031 910.204 41.2031C906.133 41.2031 903.785 42.2871 903.158 44.4551C902.773 45.6113 902.086 46.4424 901.099 46.9482C900.665 47.165 900.171 47.2734 899.617 47.2734C897.329 47.2734 896.185 46.0449 896.185 43.5879C896.185 41.4922 897.558 39.6374 900.304 38.0234C903.074 36.4095 906.579 35.6025 910.818 35.6025C917.997 35.6025 922.634 38.1439 924.729 43.2266C925.428 44.9609 925.777 47.0085 925.777 49.3691V58.7275C925.777 62.0036 925.91 64.2077 926.175 65.3398C926.44 66.4479 926.934 67.2308 927.656 67.6885C928.933 68.5075 929.571 69.459 929.571 70.543C929.571 72.5423 928.307 73.542 925.777 73.542C923.272 73.542 921.465 71.9521 920.357 68.7725ZM951.829 73.542C949.733 73.542 947.71 73.3734 945.759 73.0361C944.771 74.7705 943.735 75.6377 942.651 75.6377C941.11 75.6377 940.339 74.9271 940.339 73.5059C940.339 72.2533 940.014 71.085 939.363 70.001C938.737 68.917 938.183 68.0137 937.701 67.291C936.087 64.8822 935.28 63.196 935.28 62.2324C935.28 61.2689 935.557 60.5583 936.111 60.1006C936.665 59.6429 937.28 59.4141 937.954 59.4141C939.279 59.4141 940.471 60.474 941.531 62.5938C942.615 64.6895 943.892 66.0866 945.361 66.7852C946.831 67.4837 949.143 67.833 952.299 67.833C956.948 67.833 959.971 66.5081 961.368 63.8584C961.802 63.0635 962.019 62.1963 962.019 61.2568C962.019 59.3779 961.2 58.0531 959.562 57.2822C957.924 56.4873 955.382 55.9814 951.938 55.7646C948.493 55.5479 945.951 55.1745 944.313 54.6445C939.544 53.0306 937.159 50.1641 937.159 46.0449C937.159 43.5156 938.484 41.2393 941.134 39.2158C943.808 37.1683 947.71 36.1445 952.841 36.1445C953.925 36.1445 955.009 36.2409 956.093 36.4336C955.852 35.7591 955.731 35.193 955.731 34.7354C955.731 34.2777 955.936 33.8561 956.346 33.4707C956.755 33.0612 957.261 32.8564 957.863 32.8564C958.49 32.8564 958.971 33.013 959.309 33.3262C959.646 33.6393 960.031 34.2295 960.465 35.0967C960.898 35.9398 961.729 37.1562 962.958 38.7461C964.187 40.3118 964.945 41.3958 965.234 41.998C965.548 42.5762 965.704 43.2025 965.704 43.877C965.704 44.5514 965.487 45.1175 965.054 45.5752C964.644 46.0329 964.09 46.2617 963.392 46.2617C962.067 46.2617 960.874 45.3825 959.814 43.624C959.285 42.7327 958.514 42.1185 957.502 41.7812C956.49 41.444 954.732 41.2754 952.227 41.2754C949.721 41.2754 947.71 41.7331 946.192 42.6484C944.699 43.5397 943.952 44.5996 943.952 45.8281C943.952 47.0566 944.338 47.9118 945.108 48.3936C946.53 49.3089 948.746 49.8509 951.757 50.0195C957.538 50.3568 961.729 51.3444 964.331 52.9824C966.957 54.6204 968.27 57.0654 968.27 60.3174C968.27 64.4847 966.68 67.7367 963.5 70.0732C960.32 72.3857 956.43 73.542 951.829 73.542ZM1013.11 65.0869C1015.45 66.9176 1018.29 67.833 1021.64 67.833C1024.99 67.833 1027.88 66.6406 1030.31 64.2559C1032.77 61.847 1034 58.6191 1034 54.5723C1034 50.5013 1032.92 47.2975 1030.78 44.9609C1028.66 42.6243 1025.81 41.4561 1022.22 41.4561C1018.63 41.4561 1015.63 42.8532 1013.22 45.6475V62.8467C1013.22 63.6657 1013.18 64.4124 1013.11 65.0869ZM1011.56 70.5791C1010.42 72.5544 1008.75 73.542 1006.53 73.542C1004.34 73.542 1003.25 72.5182 1003.25 70.4707C1003.25 69.459 1003.73 68.6279 1004.69 67.9775C1005.68 67.3271 1006.31 66.4479 1006.57 65.3398C1006.84 64.2077 1006.97 62.0036 1006.97 58.7275V24.1123C1006.97 23.1729 1006.88 22.5827 1006.71 22.3418C1006.55 22.1009 1006.31 21.9805 1005.99 21.9805L1002.92 22.4141C1001.96 22.4141 1001.17 22.1732 1000.57 21.6914C999.97 21.2096 999.669 20.5352 999.669 19.668C999.669 17.8372 1000.97 16.7894 1003.57 16.5244C1005.31 16.3799 1006.63 16.1631 1007.55 15.874C1008.49 15.5609 1009.45 15.4043 1010.44 15.4043C1012.29 15.4043 1013.22 16.5605 1013.22 18.873V39.2881C1015.82 36.8311 1019.01 35.6025 1022.79 35.6025C1027.8 35.6025 1031.98 37.2165 1035.33 40.4443C1038.68 43.6722 1040.35 48.1647 1040.35 53.9219C1040.35 59.679 1038.52 64.3883 1034.86 68.0498C1031.2 71.7113 1026.54 73.542 1020.88 73.542C1018.21 73.542 1015.74 72.988 1013.47 71.8799C1012.75 71.5186 1012.11 71.085 1011.56 70.5791ZM1053.07 54.4277C1053.07 58.4023 1054.21 61.6302 1056.47 64.1113C1058.76 66.5924 1061.66 67.833 1065.18 67.833C1068.69 67.833 1071.53 66.6647 1073.67 64.3281C1075.84 61.9915 1076.92 58.8721 1076.92 54.9697C1076.92 48.4899 1074.62 44.2624 1070.02 42.2871C1068.5 41.6367 1066.79 41.3115 1064.89 41.3115C1061.25 41.3115 1058.37 42.5039 1056.25 44.8887C1054.13 47.2493 1053.07 50.429 1053.07 54.4277ZM1046.79 54.8252C1046.79 49.3089 1048.53 44.7321 1052.03 41.0947C1055.54 37.4333 1059.95 35.6025 1065.25 35.6025C1070.57 35.6025 1074.9 37.3008 1078.22 40.6973C1081.57 44.0697 1083.24 48.5863 1083.24 54.2471C1083.24 59.8838 1081.5 64.5088 1078 68.1221C1074.54 71.7354 1070.09 73.542 1064.67 73.542C1059.28 73.542 1054.94 71.7956 1051.66 68.3027C1048.41 64.8099 1046.79 60.3174 1046.79 54.8252ZM1111.28 73L1101.92 72.7832C1100.84 72.7832 1100.05 72.7952 1099.54 72.8193L1097.95 72.8916C1096.75 72.9639 1095.69 73 1094.77 73C1092.43 73 1091.27 72.1087 1091.27 70.3262C1091.27 69.459 1091.63 68.7845 1092.35 68.3027C1093.1 67.821 1094.08 67.5801 1095.31 67.5801H1098.56V44.0215C1098.56 42.5762 1098.25 41.8535 1097.62 41.8535C1097.34 41.8535 1096.88 41.9378 1096.25 42.1064C1095.65 42.2751 1094.96 42.3594 1094.19 42.3594C1093.45 42.3594 1092.77 42.1064 1092.17 41.6006C1091.57 41.0947 1091.27 40.4082 1091.27 39.541C1091.27 37.7103 1092.57 36.6624 1095.17 36.3975C1096.78 36.2529 1098.09 36.0361 1099.11 35.7471C1100.14 35.458 1101.14 35.3135 1102.11 35.3135C1103.91 35.3135 1104.82 36.4697 1104.82 38.7822V44.3467C1106.69 40.2035 1109.78 37.4935 1114.07 36.2168C1115.44 35.8073 1116.81 35.6025 1118.18 35.6025C1120.76 35.6025 1122.83 36.2168 1124.4 37.4453C1125.99 38.6497 1126.78 40.3841 1126.78 42.6484C1126.78 44.9128 1126.39 46.6471 1125.59 47.8516C1124.8 49.056 1123.74 49.6582 1122.41 49.6582C1120.34 49.6582 1119.3 48.7188 1119.3 46.8398C1119.3 46.4544 1119.34 46.1413 1119.41 45.9004L1119.7 45.1055C1119.92 44.5033 1120.03 43.889 1120.03 43.2627C1120.03 41.8896 1118.86 41.2031 1116.52 41.2031C1114.19 41.2031 1111.9 42.528 1109.66 45.1777C1107.44 47.8275 1105.83 51.3203 1104.82 55.6562V67.5801H1110.67C1113.75 67.5801 1115.29 68.5316 1115.29 70.4346C1115.29 71.109 1114.99 71.7113 1114.39 72.2412C1113.81 72.7471 1112.78 73 1111.28 73ZM1135.82 73C1133.5 73 1132.35 72.1087 1132.35 70.3262C1132.35 69.459 1132.71 68.7845 1133.43 68.3027C1134.16 67.821 1135.15 67.5801 1136.43 67.5801H1139.65V44.0215C1139.65 42.5762 1139.33 41.8535 1138.71 41.8535C1138.37 41.8535 1137.93 41.9378 1137.37 42.1064C1136.82 42.2751 1136.14 42.3594 1135.35 42.3594C1134.55 42.3594 1133.85 42.1064 1133.25 41.6006C1132.65 41.0947 1132.35 40.4082 1132.35 39.541C1132.35 37.7103 1133.65 36.6624 1136.25 36.3975C1137.62 36.277 1138.9 36.0723 1140.08 35.7832C1141.29 35.4701 1142.35 35.3135 1143.26 35.3135C1145.02 35.3135 1145.9 36.4697 1145.9 38.7822V43.5156C1146.93 41.2031 1148.63 39.3122 1150.99 37.8428C1153.35 36.3493 1155.85 35.6025 1158.47 35.6025C1163.15 35.6025 1166.46 36.7829 1168.41 39.1436C1170.36 41.5042 1171.34 44.6839 1171.34 48.6826V67.5801H1173.76C1176.79 67.5801 1178.31 68.5316 1178.31 70.4346C1178.31 71.109 1178.02 71.7113 1177.44 72.2412C1176.86 72.7471 1175.88 73 1174.48 73L1168.12 72.7832L1161.25 73C1158.94 73 1157.79 72.1087 1157.79 70.3262C1157.79 69.459 1158.15 68.7845 1158.87 68.3027C1159.59 67.821 1160.59 67.5801 1161.87 67.5801H1165.01V51.0312C1165.01 45.9727 1163.74 42.9375 1161.18 41.9258C1160.29 41.5645 1159.22 41.3838 1157.97 41.3838C1155.39 41.3838 1152.92 42.3714 1150.56 44.3467C1148.22 46.3219 1146.67 48.8271 1145.9 51.8623V67.5801H1148.32C1151.35 67.5801 1152.87 68.5316 1152.87 70.4346C1152.87 71.109 1152.58 71.7113 1152 72.2412C1151.43 72.7471 1150.44 73 1149.04 73L1142.68 72.7832L1135.82 73ZM1184.78 34.7715C1183.36 34.7715 1182.65 34.1572 1182.65 32.9287C1182.65 32.0615 1183.16 31.2786 1184.2 30.5801C1186.1 29.2311 1187.05 27.8701 1187.05 26.4971C1187.05 25.6781 1186.49 24.6784 1185.36 23.498C1184.25 22.2936 1183.69 21.029 1183.69 19.7041C1183.69 18.3792 1184.09 17.3314 1184.89 16.5605C1185.7 15.7897 1186.78 15.4043 1188.1 15.4043C1189.45 15.4043 1190.59 15.9945 1191.53 17.1748C1192.5 18.3551 1192.98 19.7161 1192.98 21.2578C1192.98 25.4492 1191.86 28.9059 1189.62 31.6279C1188.56 32.9287 1187.58 33.7839 1186.69 34.1934C1185.83 34.5788 1185.19 34.7715 1184.78 34.7715ZM1197.79 34.7715C1196.36 34.7715 1195.65 34.1572 1195.65 32.9287C1195.65 32.0615 1196.17 31.2786 1197.21 30.5801C1199.11 29.2311 1200.06 27.8701 1200.06 26.4971C1200.06 25.6781 1199.5 24.6784 1198.36 23.498C1197.26 22.2936 1196.7 21.029 1196.7 19.7041C1196.7 18.3792 1197.1 17.3314 1197.89 16.5605C1198.71 15.7897 1199.78 15.4043 1201.11 15.4043C1202.46 15.4043 1203.6 15.9945 1204.54 17.1748C1205.51 18.3551 1205.99 19.7161 1205.99 21.2578C1205.99 25.4492 1204.87 28.9059 1202.63 31.6279C1201.57 32.9287 1200.59 33.7839 1199.7 34.1934C1198.83 34.5788 1198.19 34.7715 1197.79 34.7715Z" fill="white"/>
<rect x="7" y="127" width="368" height="27" fill="white"/>
</svg>
