<svg width="893" height="887" viewBox="0 0 893 887" fill="none" xmlns="http://www.w3.org/2000/svg">
<path d="M439.133 758.158L438.409 738.45C439.149 737.488 440.308 736.431 441.884 735.278C443.462 734.149 445.511 733.15 448.033 732.282C450.555 731.415 453.627 730.914 457.247 730.781C460.458 730.663 463.403 731.08 466.083 732.03C468.764 733.003 471.098 734.48 473.086 736.459C475.052 738.439 476.601 740.89 477.734 743.813C478.868 746.758 479.506 750.144 479.646 753.969L479.76 757.078C479.901 760.903 479.536 764.325 478.666 767.344C477.774 770.364 476.443 772.933 474.674 775.05C472.905 777.167 470.764 778.807 468.253 779.971C465.742 781.135 462.927 781.774 459.807 781.889C455.481 782.048 451.903 781.472 449.073 780.162C446.244 778.875 444.055 777.017 442.506 774.589C440.936 772.184 439.922 769.394 439.463 766.218L449.403 765.853C449.715 767.529 450.247 768.98 450.999 770.207C451.751 771.433 452.8 772.375 454.147 773.033C455.47 773.691 457.168 773.982 459.241 773.906C460.949 773.843 462.461 773.434 463.779 772.679C465.074 771.948 466.153 770.893 467.015 769.516C467.876 768.139 468.51 766.452 468.915 764.453C469.321 762.454 469.475 760.146 469.379 757.527L469.262 754.35C469.167 751.755 468.832 749.464 468.258 747.478C467.684 745.516 466.883 743.869 465.853 742.539C464.802 741.232 463.535 740.264 462.053 739.634C460.57 739.005 458.861 738.725 456.926 738.796C455.309 738.856 453.971 739.042 452.91 739.354C451.827 739.668 450.963 740.03 450.317 740.441C449.649 740.876 449.139 741.283 448.788 741.66L449.112 750.473L458.47 750.129L458.739 757.439L439.133 758.158Z" fill="white"/>
<path d="M412.381 766.703L415.901 729.888L425.734 730.828L422.214 767.643L412.381 766.703ZM421.909 777.296C421.772 778.725 421.16 779.857 420.073 780.692C418.986 781.526 417.604 781.863 415.925 781.703C414.269 781.544 412.987 780.953 412.078 779.927C411.146 778.899 410.748 777.671 410.885 776.242C411.022 774.813 411.645 773.682 412.754 772.85C413.841 772.015 415.213 771.677 416.869 771.836C418.547 771.996 419.841 772.589 420.75 773.615C421.659 774.64 422.045 775.867 421.909 777.296Z" fill="white"/>
<path d="M389.409 732.928L375.261 760.414L365.192 758.301L384.995 724.668L391.083 725.945L389.409 732.928ZM388.809 763.256L386.873 732.361L388.173 725.335L394.295 726.619L398.911 765.375L388.809 763.256Z" fill="white"/>
<path d="M348.529 713.051C351.225 714.037 353.486 715.35 355.313 716.989C357.132 718.65 358.508 720.524 359.442 722.613C360.355 724.694 360.835 726.896 360.883 729.219C360.923 731.563 360.52 733.89 359.674 736.201L359.204 737.485C358.241 740.117 356.986 742.388 355.438 744.296C353.89 746.205 352.127 747.707 350.149 748.803C348.149 749.891 345.987 750.495 343.662 750.615C341.33 750.756 338.901 750.364 336.376 749.44C333.915 748.54 331.881 747.334 330.275 745.824C328.668 744.314 327.496 742.575 326.761 740.607C326.003 738.632 325.677 736.474 325.781 734.134C325.877 731.816 326.391 729.384 327.323 726.837L328.733 722.985L356.337 733.087L354.082 739.25L335.561 732.472L335.303 733.179C334.833 734.462 334.649 735.693 334.752 736.871C334.826 738.063 335.213 739.127 335.914 740.063C336.614 740.999 337.682 741.729 339.115 742.254C340.335 742.7 341.482 742.816 342.555 742.602C343.628 742.388 344.619 741.902 345.527 741.142C346.415 740.375 347.236 739.39 347.992 738.186C348.719 736.997 349.364 735.631 349.928 734.091L350.398 732.807C350.907 731.416 351.184 730.061 351.23 728.743C351.254 727.418 351.059 726.194 350.645 725.072C350.209 723.942 349.553 722.949 348.677 722.095C347.779 721.232 346.656 720.555 345.308 720.061C343.639 719.45 341.97 719.204 340.301 719.321C338.604 719.452 336.988 719.989 335.454 720.932L332.745 714.408C333.857 713.626 335.22 712.984 336.835 712.484C338.428 711.975 340.216 711.731 342.198 711.753C344.171 711.796 346.282 712.228 348.529 713.051Z" fill="white"/>
<path d="M271.986 732.278L264.912 727.245L275.676 690.062L244.079 712.425L237.005 707.393L280.502 677.262L286.184 681.304L271.986 732.278ZM275.802 734.992L268.756 729.979L288.119 700.047L296.322 688.516L304.649 694.44L275.802 734.992ZM240.236 709.691L233.161 704.659L262.009 664.107L270.364 670.051L262.162 681.581L240.236 709.691Z" fill="white"/>
<path d="M241.753 642.266C243.739 644.34 245.191 646.515 246.109 648.791C247.01 651.082 247.42 653.372 247.339 655.658C247.242 657.929 246.703 660.117 245.723 662.223C244.726 664.345 243.339 666.257 241.562 667.96L240.575 668.905C238.551 670.844 236.424 672.329 234.194 673.361C231.963 674.393 229.719 674.965 227.46 675.077C225.186 675.174 222.979 674.763 220.839 673.847C218.683 672.946 216.674 671.525 214.815 669.583C213.002 667.691 211.707 665.713 210.929 663.65C210.152 661.586 209.866 659.509 210.072 657.418C210.263 655.311 210.92 653.23 212.044 651.176C213.152 649.137 214.685 647.179 216.643 645.304L219.605 642.466L239.938 663.694L235.198 668.234L221.557 653.991L221.013 654.511C220.026 655.457 219.319 656.481 218.893 657.584C218.434 658.686 218.313 659.812 218.53 660.961C218.747 662.11 219.383 663.235 220.439 664.338C221.338 665.276 222.316 665.885 223.373 666.166C224.431 666.446 225.535 666.446 226.685 666.165C227.82 665.867 228.991 665.344 230.2 664.596C231.377 663.848 232.557 662.907 233.742 661.772L234.729 660.826C235.799 659.802 236.644 658.708 237.266 657.545C237.871 656.365 238.235 655.18 238.358 653.99C238.464 652.784 238.312 651.604 237.902 650.451C237.476 649.282 236.766 648.178 235.773 647.142C234.544 645.858 233.154 644.902 231.605 644.272C230.023 643.642 228.336 643.412 226.543 643.583L226.985 636.533C228.327 636.321 229.833 636.345 231.504 636.607C233.159 636.852 234.871 637.42 236.64 638.313C238.394 639.221 240.098 640.539 241.753 642.266Z" fill="white"/>
<path d="M164.588 624.826L178.974 604.427L154.132 606.867L148.509 597.208L184.099 595.432L199.754 586.317L204.982 595.297L189.327 604.411L170.229 634.515L164.588 624.826Z" fill="white"/>
<path d="M171.887 572.335L171.217 572.592C168.685 573.562 166.216 574.094 163.811 574.186C161.385 574.286 159.12 573.947 157.015 573.167C154.91 572.388 153.034 571.155 151.387 569.468C149.719 567.789 148.383 565.641 147.38 563.024C146.376 560.407 145.93 557.906 146.041 555.521C146.13 553.144 146.697 550.962 147.741 548.976C148.777 546.968 150.231 545.19 152.103 543.643C153.953 542.104 156.145 540.849 158.676 539.879L159.347 539.622C161.857 538.659 164.326 538.128 166.752 538.028C169.157 537.935 171.427 538.285 173.561 539.078C175.665 539.857 177.541 541.091 179.188 542.777C180.836 544.464 182.161 546.616 183.164 549.233C184.167 551.85 184.624 554.347 184.535 556.724C184.437 559.08 183.87 561.262 182.834 563.27C181.769 565.264 180.311 567.031 178.46 568.57C176.589 570.117 174.397 571.372 171.887 572.335ZM167.693 563.4L168.363 563.143C169.81 562.589 171.112 561.943 172.27 561.206C173.427 560.47 174.379 559.641 175.124 558.721C175.84 557.788 176.289 556.762 176.47 555.643C176.651 554.524 176.489 553.305 175.983 551.986C175.494 550.709 174.808 549.716 173.925 549.005C173.042 548.294 172.027 547.841 170.879 547.647C169.709 547.461 168.448 547.48 167.095 547.706C165.733 547.911 164.329 548.291 162.882 548.845L162.212 549.102C160.808 549.64 159.542 550.284 158.414 551.034C157.256 551.771 156.309 552.61 155.572 553.551C154.805 554.479 154.32 555.507 154.118 556.634C153.916 557.761 154.063 558.973 154.561 560.271C155.058 561.569 155.759 562.57 156.663 563.272C157.558 563.954 158.606 564.394 159.805 564.594C160.974 564.78 162.236 564.76 163.589 564.534C164.921 564.316 166.289 563.938 167.693 563.4Z" fill="white"/>
<path d="M160.123 503.597L132.622 509.509L130.553 499.885L166.709 492.113L168.656 501.169L160.123 503.597ZM152.475 504.123L151.798 501.297C154.204 500.78 156.502 500.577 158.694 500.688C160.863 500.805 162.825 501.257 164.579 502.045C166.311 502.838 167.783 503.99 168.993 505.502C170.181 507.017 171.022 508.923 171.515 511.217C171.894 512.977 171.998 514.656 171.829 516.254C171.633 517.835 171.115 519.274 170.275 520.574C169.409 521.855 168.194 522.979 166.63 523.944C165.039 524.892 163.041 525.625 160.635 526.142L137.277 531.163L135.208 521.539L158.633 516.504C159.702 516.274 160.578 515.957 161.26 515.554C161.938 515.129 162.46 514.632 162.828 514.064C163.195 513.495 163.412 512.878 163.478 512.211C163.54 511.522 163.487 510.787 163.319 510.007C162.893 508.025 162.157 506.552 161.111 505.588C160.06 504.602 158.793 504.023 157.311 503.852C155.803 503.664 154.19 503.754 152.475 504.123Z" fill="white"/>
<path d="M135.7 472.408L164.52 470.056L165.321 479.867L128.461 482.875L127.708 473.643L135.7 472.408ZM126.516 461.978L135.625 461.406C135.596 461.889 135.586 462.472 135.597 463.157C135.582 463.822 135.597 464.426 135.642 464.971C135.755 466.357 136.035 467.546 136.482 468.538C136.904 469.509 137.483 470.308 138.22 470.934C138.955 471.537 139.825 471.969 140.829 472.23C141.832 472.468 142.96 472.559 144.212 472.502L143.76 474.528C141.376 474.723 139.165 474.663 137.127 474.349C135.067 474.037 133.25 473.488 131.677 472.702C130.102 471.893 128.852 470.852 127.925 469.579C126.998 468.306 126.464 466.806 126.323 465.08C126.278 464.535 126.278 463.975 126.323 463.4C126.345 462.826 126.409 462.353 126.516 461.978Z" fill="white"/>
<path d="M114.825 414.219L116.255 405.656L154.4 399.067L120.467 380.439L121.897 371.876L168.021 397.807L166.872 404.685L114.825 414.219ZM114.054 418.838L115.478 410.309L150.866 414.625L164.823 416.956L163.139 427.036L114.054 418.838ZM121.244 375.787L122.674 367.224L171.76 375.422L170.07 385.536L156.113 383.205L121.244 375.787Z" fill="white"/>
<path d="M158.414 358.519L157.741 358.268C155.201 357.319 153 356.083 151.136 354.56C149.251 353.029 147.778 351.275 146.717 349.297C145.656 347.319 145.067 345.153 144.949 342.798C144.81 340.436 145.231 337.942 146.212 335.316C147.193 332.691 148.514 330.521 150.176 328.806C151.817 327.084 153.686 325.824 155.784 325.027C157.89 324.208 160.156 323.839 162.583 323.919C164.989 323.99 167.462 324.501 170.002 325.45L170.675 325.701C173.193 326.642 175.395 327.878 177.28 329.409C179.143 330.932 180.612 332.697 181.687 334.704C182.748 336.682 183.338 338.848 183.455 341.203C183.573 343.557 183.141 346.048 182.16 348.673C181.179 351.299 179.869 353.472 178.228 355.195C176.595 356.895 174.726 358.155 172.62 358.974C170.501 359.763 168.238 360.122 165.833 360.05C163.406 359.971 160.933 359.46 158.414 358.519ZM161.186 349.047L161.859 349.298C163.31 349.84 164.714 350.219 166.069 350.433C167.424 350.647 168.685 350.657 169.853 350.46C171.008 350.235 172.023 349.763 172.9 349.045C173.776 348.326 174.462 347.305 174.956 345.982C175.435 344.701 175.578 343.502 175.388 342.385C175.197 341.267 174.736 340.256 174.004 339.35C173.251 338.436 172.292 337.616 171.128 336.889C169.973 336.141 168.669 335.496 167.218 334.954L166.545 334.703C165.136 334.177 163.761 333.821 162.419 333.636C161.064 333.421 159.799 333.423 158.623 333.641C157.434 333.829 156.39 334.278 155.492 334.989C154.595 335.699 153.902 336.705 153.416 338.007C152.929 339.309 152.792 340.523 153.004 341.648C153.224 342.752 153.718 343.776 154.484 344.719C155.238 345.633 156.196 346.453 157.36 347.18C158.502 347.898 159.778 348.521 161.186 349.047Z" fill="white"/>
<path d="M171.473 299.975L196.832 314.221L192.011 322.803L159.768 304.69L164.288 296.644L171.473 299.975ZM178.875 305.78L177.569 308.104C175.186 306.765 173.213 305.252 171.652 303.564C170.071 301.866 168.917 300.081 168.191 298.209C167.446 296.327 167.145 294.42 167.289 292.488C167.425 290.526 168.028 288.591 169.099 286.684C169.948 285.174 170.942 283.916 172.082 282.91C173.222 281.904 174.52 281.222 175.976 280.864C177.443 280.486 179.095 280.499 180.932 280.904C182.781 281.289 184.837 282.118 187.102 283.39L207.664 294.941L202.809 303.583L182.217 292.015C180.787 291.211 179.563 290.785 178.545 290.736C177.527 290.687 176.642 290.96 175.889 291.557C175.127 292.122 174.433 292.961 173.808 294.073C173.161 295.225 172.826 296.357 172.803 297.468C172.791 298.559 173.036 299.611 173.538 300.625C174.031 301.608 174.736 302.54 175.653 303.421C176.569 304.301 177.644 305.088 178.875 305.78Z" fill="white"/>
<path d="M225.432 271.849C223.665 274.112 221.722 275.862 219.601 277.097C217.463 278.319 215.256 279.053 212.982 279.301C210.721 279.531 208.478 279.313 206.253 278.645C204.01 277.964 201.918 276.866 199.978 275.352L198.9 274.511C196.691 272.786 194.915 270.895 193.574 268.836C192.232 266.777 191.344 264.638 190.908 262.419C190.486 260.182 190.575 257.939 191.174 255.69C191.756 253.426 192.873 251.235 194.528 249.115C196.14 247.05 197.911 245.484 199.842 244.418C201.772 243.352 203.787 242.771 205.885 242.674C207.998 242.56 210.152 242.912 212.347 243.729C214.524 244.532 216.681 245.768 218.819 247.436L222.052 249.96L203.966 273.131L198.793 269.094L210.927 253.547L210.334 253.084C209.256 252.243 208.141 251.691 206.989 251.427C205.832 251.131 204.701 251.173 203.595 251.553C202.489 251.933 201.466 252.724 200.527 253.928C199.728 254.952 199.266 256.007 199.14 257.094C199.014 258.181 199.173 259.274 199.617 260.372C200.075 261.452 200.76 262.536 201.674 263.625C202.583 264.681 203.685 265.715 204.978 266.724L206.056 267.565C207.223 268.477 208.427 269.156 209.668 269.604C210.922 270.034 212.147 270.224 213.342 270.174C214.551 270.106 215.697 269.786 216.779 269.214C217.875 268.625 218.865 267.764 219.748 266.632C220.842 265.231 221.589 263.719 221.989 262.094C222.386 260.438 222.371 258.736 221.944 256.986L228.984 256.411C229.387 257.708 229.579 259.203 229.561 260.893C229.556 262.566 229.239 264.342 228.61 266.222C227.964 268.087 226.904 269.963 225.432 271.849Z" fill="white"/>
<path d="M245.959 241.764L230.342 211.285L237.968 203.978L256.672 244.991C257.088 245.886 257.469 246.91 257.815 248.061C258.177 249.197 258.361 250.426 258.365 251.748C258.401 253.07 258.138 254.426 257.577 255.816C257.031 257.191 256.051 258.556 254.636 259.911C253.962 260.558 253.371 261.045 252.865 261.372C252.358 261.7 251.738 262.073 251.003 262.493L246.014 257.285C246.195 257.112 246.384 256.931 246.582 256.741C246.795 256.569 246.992 256.396 247.173 256.222C248.111 255.324 248.773 254.484 249.161 253.702C249.548 252.921 249.71 252.135 249.646 251.344C249.598 250.569 249.35 249.734 248.902 248.838L245.959 241.764ZM220.297 220.909L244.636 234.701L252.86 241.259L248.519 246.412L212.671 228.216L220.297 220.909Z" fill="white"/>
<path d="M285.491 165.668L294.412 208.16L284.971 213.615L276.083 161.275L282.091 157.803L285.491 165.668ZM315.868 195.762L283.478 166.831L278.273 160.009L284.34 156.504L325.338 190.29L315.868 195.762ZM306.066 180.03L310.085 186.985L287.327 200.135L283.308 193.18L306.066 180.03Z" fill="white"/>
<path d="M332.413 156.439L342.549 183.703L333.322 187.133L320.435 152.469L329.085 149.253L332.413 156.439ZM334.307 165.654L331.808 166.583C330.855 164.02 330.329 161.59 330.229 159.293C330.121 156.976 330.395 154.868 331.051 152.971C331.699 151.053 332.702 149.403 334.061 148.023C335.433 146.614 337.145 145.528 339.195 144.765C340.818 144.162 342.39 143.845 343.91 143.815C345.431 143.784 346.862 144.103 348.204 144.771C349.568 145.431 350.819 146.509 351.959 148.006C353.12 149.495 354.154 151.457 355.059 153.892L363.277 175.997L353.986 179.451L345.756 157.313C345.184 155.776 344.526 154.659 343.781 153.963C343.037 153.268 342.184 152.904 341.224 152.872C340.278 152.811 339.206 153.002 338.01 153.447C336.771 153.907 335.784 154.554 335.048 155.387C334.334 156.211 333.84 157.173 333.568 158.271C333.309 159.34 333.244 160.506 333.374 161.771C333.504 163.035 333.815 164.33 334.307 165.654Z" fill="white"/>
<path d="M394.705 160.341L385.807 116.807L395.519 114.822L406.031 166.259L397.291 168.045L394.705 160.341ZM369.801 155.244L369.657 154.541C369.091 151.772 368.89 149.197 369.055 146.814C369.214 144.409 369.73 142.269 370.603 140.393C371.475 138.517 372.702 136.952 374.283 135.698C375.865 134.445 377.783 133.588 380.037 133.127C382.158 132.693 384.102 132.761 385.87 133.33C387.66 133.895 389.282 134.889 390.736 136.313C392.207 137.71 393.517 139.454 394.666 141.545C395.81 143.614 396.807 145.933 397.658 148.504L397.973 150.044C398.176 152.631 398.153 155.078 397.903 157.384C397.654 159.691 397.126 161.776 396.321 163.639C395.533 165.474 394.427 167.003 393.002 168.224C391.577 169.446 389.793 170.275 387.65 170.713C385.395 171.174 383.292 171.127 381.341 170.572C379.413 170.013 377.677 169.03 376.134 167.625C374.613 166.215 373.312 164.457 372.23 162.352C371.149 160.248 370.339 157.878 369.801 155.244ZM379.301 152.569L379.445 153.273C379.751 154.768 380.148 156.141 380.636 157.39C381.146 158.635 381.771 159.705 382.513 160.6C383.271 161.468 384.143 162.092 385.128 162.472C386.13 162.826 387.268 162.872 388.541 162.612C390.193 162.275 391.479 161.628 392.4 160.672C393.317 159.694 393.919 158.489 394.208 157.058C394.519 155.622 394.544 154.036 394.282 152.299L393.385 147.912C393.031 146.519 392.572 145.299 392.009 144.251C391.464 143.176 390.797 142.301 390.007 141.625C389.24 140.944 388.354 140.474 387.347 140.215C386.363 139.951 385.257 139.944 384.029 140.195C382.779 140.451 381.766 140.96 380.992 141.723C380.213 142.464 379.645 143.382 379.287 144.479C378.952 145.57 378.788 146.813 378.794 148.208C378.817 149.575 378.987 151.029 379.301 152.569Z" fill="white"/>
<path d="M452.152 113.857L452.201 163.622L441.981 163.632L441.932 113.867L452.152 113.857Z" fill="white"/>
<path d="M532.709 148.856L528.534 168.13C527.579 168.879 526.195 169.617 524.382 170.343C522.574 171.048 520.341 171.508 517.683 171.725C515.025 171.942 511.925 171.666 508.384 170.899C505.244 170.219 502.493 169.087 500.132 167.503C497.775 165.896 495.879 163.889 494.443 161.479C493.028 159.074 492.134 156.316 491.759 153.204C491.389 150.069 491.609 146.631 492.42 142.89L493.078 139.85C493.889 136.109 495.089 132.883 496.678 130.173C498.29 127.468 500.215 125.309 502.453 123.695C504.691 122.082 507.171 121.022 509.892 120.516C512.613 120.009 515.499 120.087 518.55 120.748C522.781 121.664 526.106 123.107 528.523 125.077C530.946 127.024 532.607 129.365 533.506 132.102C534.433 134.82 534.725 137.775 534.384 140.965L524.663 138.859C524.775 137.158 524.619 135.62 524.194 134.246C523.769 132.871 522.985 131.699 521.843 130.729C520.723 129.764 519.15 129.061 517.124 128.622C515.453 128.26 513.886 128.282 512.423 128.688C510.987 129.076 509.681 129.831 508.505 130.952C507.33 132.073 506.298 133.551 505.411 135.388C504.524 137.224 503.802 139.422 503.248 141.983L502.575 145.09C502.025 147.629 501.782 149.931 501.848 151.997C501.918 154.041 502.287 155.834 502.955 157.378C503.65 158.904 504.638 160.156 505.919 161.132C507.199 162.109 508.786 162.803 510.679 163.213C512.26 163.555 513.603 163.706 514.707 163.666C515.834 163.63 516.762 163.493 517.49 163.254C518.244 162.998 518.839 162.731 519.272 162.452L521.139 153.833L511.986 151.85L513.535 144.702L532.709 148.856Z" fill="white"/>
<path d="M560.744 147.197L548.223 181.996L538.928 178.651L551.449 143.853L560.744 147.197ZM554.133 134.575C554.619 133.224 555.492 132.279 556.752 131.739C558.011 131.2 559.435 131.215 561.021 131.786C562.586 132.349 563.683 133.24 564.31 134.459C564.958 135.685 565.039 136.973 564.553 138.324C564.067 139.675 563.184 140.616 561.903 141.148C560.643 141.688 559.231 141.676 557.665 141.113C556.079 140.542 554.972 139.647 554.345 138.429C553.718 137.21 553.647 135.926 554.133 134.575Z" fill="white"/>
<path d="M574.645 185.605L595.154 162.475L604.387 167.014L576.877 194.701L571.294 191.957L574.645 185.605ZM582.73 156.369L576.961 186.782L573.963 193.268L568.35 190.509L573.467 151.816L582.73 156.369Z" fill="white"/>
<path d="M609.334 214.98C606.966 213.357 605.1 211.525 603.736 209.485C602.384 207.426 601.515 205.269 601.126 203.014C600.757 200.772 600.837 198.52 601.365 196.258C601.906 193.977 602.873 191.821 604.264 189.792L605.037 188.664C606.621 186.352 608.4 184.463 610.371 182.997C612.343 181.53 614.423 180.511 616.611 179.939C618.818 179.38 621.062 179.329 623.344 179.789C625.639 180.229 627.895 181.209 630.113 182.729C632.275 184.211 633.947 185.882 635.13 187.743C636.314 189.603 637.018 191.578 637.244 193.667C637.489 195.768 637.271 197.94 636.592 200.181C635.925 202.403 634.825 204.633 633.292 206.87L630.973 210.253L606.727 193.634L610.437 188.221L626.704 199.371L627.129 198.751C627.902 197.623 628.385 196.476 628.577 195.309C628.801 194.136 628.689 193.01 628.241 191.93C627.794 190.849 626.94 189.878 625.681 189.015C624.61 188.28 623.528 187.884 622.435 187.826C621.342 187.767 620.262 187.994 619.193 188.505C618.144 189.028 617.104 189.78 616.074 190.759C615.075 191.732 614.112 192.895 613.185 194.248L612.412 195.376C611.574 196.598 610.971 197.841 610.6 199.107C610.249 200.386 610.135 201.62 610.259 202.81C610.401 204.012 610.791 205.136 611.429 206.181C612.085 207.238 613.006 208.173 614.19 208.985C615.656 209.989 617.212 210.641 618.857 210.941C620.535 211.234 622.233 211.114 623.953 210.58L624.963 217.57C623.693 218.053 622.213 218.338 620.524 218.423C618.855 218.522 617.062 218.316 615.147 217.804C613.246 217.274 611.308 216.333 609.334 214.98Z" fill="white"/>
<path d="M688.435 216.263L678.528 239.173L702.344 231.703L709.825 240.007L675.352 249.027L661.893 261.152L654.938 253.432L668.397 241.307L680.931 207.934L688.435 216.263Z" fill="white"/>
<path d="M692.031 269.137L692.634 268.749C694.914 267.281 697.222 266.255 699.557 265.673C701.911 265.078 704.198 264.947 706.418 265.279C708.637 265.612 710.726 266.435 712.683 267.749C714.66 269.051 716.407 270.88 717.925 273.236C719.442 275.593 720.391 277.95 720.77 280.307C721.169 282.652 721.061 284.904 720.445 287.062C719.842 289.239 718.782 291.277 717.267 293.174C715.77 295.059 713.882 296.736 711.603 298.204L710.999 298.592C708.739 300.048 706.431 301.073 704.077 301.668C701.741 302.25 699.448 302.372 697.197 302.033C694.978 301.7 692.889 300.877 690.932 299.563C688.974 298.249 687.237 296.414 685.719 294.057C684.202 291.701 683.244 289.35 682.845 287.005C682.458 284.679 682.567 282.428 683.17 280.25C683.805 278.08 684.87 276.052 686.367 274.167C687.882 272.27 689.77 270.593 692.031 269.137ZM697.964 277.025L697.361 277.413C696.058 278.252 694.915 279.151 693.933 280.108C692.951 281.066 692.189 282.072 691.648 283.125C691.138 284.185 690.909 285.281 690.96 286.413C691.012 287.546 691.42 288.706 692.185 289.893C692.925 291.043 693.8 291.875 694.809 292.391C695.819 292.906 696.905 293.141 698.069 293.097C699.252 293.04 700.483 292.762 701.761 292.264C703.052 291.785 704.348 291.126 705.651 290.287L706.255 289.899C707.519 289.085 708.627 288.195 709.577 287.231C710.56 286.273 711.315 285.258 711.844 284.185C712.405 283.12 712.669 282.015 712.636 280.87C712.604 279.725 712.211 278.569 711.459 277.4C710.706 276.232 709.816 275.396 708.787 274.893C707.771 274.409 706.656 274.192 705.441 274.242C704.258 274.299 703.028 274.577 701.749 275.075C700.49 275.561 699.228 276.211 697.964 277.025Z" fill="white"/>
<path d="M717.61 334.013L743.32 322.599L747.315 331.596L713.513 346.602L709.755 338.136L717.61 334.013ZM724.989 331.934L726.23 334.562C723.981 335.56 721.773 336.229 719.605 336.568C717.457 336.898 715.445 336.857 713.566 336.444C711.708 336.022 710.033 335.196 708.539 333.964C707.065 332.723 705.852 331.031 704.9 328.885C704.17 327.24 703.724 325.618 703.563 324.019C703.431 322.432 703.644 320.917 704.2 319.473C704.786 318.041 705.745 316.693 707.078 315.428C708.442 314.175 710.248 313.049 712.497 312.05L734.334 302.356L738.328 311.353L716.429 321.075C715.429 321.519 714.636 322.008 714.051 322.542C713.475 323.097 713.065 323.69 712.822 324.322C712.578 324.953 712.493 325.602 712.564 326.268C712.645 326.956 712.847 327.664 713.17 328.393C713.993 330.246 715.015 331.538 716.237 332.267C717.467 333.017 718.825 333.324 720.311 333.188C721.826 333.064 723.386 332.646 724.989 331.934Z" fill="white"/>
<path d="M768.266 392.982L725.311 386.66L723.456 375.915L775.642 385.674L776.822 392.511L768.266 392.982ZM729.525 411.079L767.871 390.691L776.072 388.166L777.264 395.071L731.385 421.857L729.525 411.079ZM747.676 407.322L739.761 408.688L735.291 382.787L743.206 381.421L747.676 407.322Z" fill="white"/>
<path d="M739.296 466.292L779.77 480.892L779.142 486.393L772.071 486.858L730.753 471.508L731.428 465.599L739.296 466.292ZM781.473 465.984L738.943 469.382L731.176 467.807L731.928 461.219L782.626 455.898L781.473 465.984ZM736.579 491.576L777.09 504.358L775.937 514.443L727.743 497.86L728.495 491.272L736.579 491.576ZM778.789 489.484L735.887 494.628L728.243 493.48L728.918 487.571L772.675 481.87L779.413 484.016L778.789 489.484Z" fill="white"/>
<path d="M717.547 533.757C718.402 531.016 719.604 528.694 721.153 526.79C722.723 524.893 724.529 523.427 726.57 522.393C728.604 521.381 730.78 520.794 733.098 520.634C735.437 520.481 737.782 520.77 740.131 521.503L741.436 521.91C744.112 522.745 746.44 523.889 748.421 525.342C750.403 526.796 751.988 528.484 753.179 530.407C754.363 532.351 755.071 534.482 755.303 536.798C755.557 539.121 755.284 541.566 754.483 544.132C753.703 546.634 752.597 548.724 751.167 550.402C749.736 552.08 748.056 553.334 746.126 554.165C744.19 555.017 742.05 555.447 739.708 555.457C737.388 555.473 734.933 555.077 732.345 554.27L728.429 553.048L737.182 524.987L743.447 526.941L737.574 545.768L738.292 545.992C739.597 546.399 740.836 546.523 742.008 546.364C743.194 546.232 744.238 545.794 745.139 545.049C746.04 544.303 746.717 543.202 747.172 541.745C747.559 540.505 747.619 539.354 747.354 538.292C747.088 537.231 746.554 536.265 745.751 535.394C744.942 534.545 743.918 533.772 742.68 533.075C741.456 532.407 740.061 531.829 738.495 531.34L737.189 530.933C735.776 530.492 734.409 530.281 733.091 530.299C731.765 530.339 730.552 530.593 729.452 531.061C728.344 531.551 727.385 532.255 726.574 533.171C725.756 534.11 725.133 535.264 724.706 536.634C724.176 538.331 724.011 540.01 724.209 541.671C724.422 543.36 725.036 544.949 726.052 546.435L719.668 549.456C718.833 548.384 718.126 547.054 717.547 545.465C716.962 543.898 716.632 542.124 716.558 540.144C716.505 538.17 716.835 536.041 717.547 533.757Z" fill="white"/>
<path d="M757.238 580.438L752.928 589.288L713.35 570.011L706.163 565.408L710.039 557.449L757.238 580.438ZM712.439 595.61L711.793 595.295C709.315 594.088 707.17 592.714 705.361 591.174C703.541 589.654 702.138 587.982 701.151 586.158C700.184 584.344 699.675 582.423 699.623 580.395C699.582 578.398 700.09 576.314 701.148 574.143C702.136 572.115 703.404 570.552 704.952 569.456C706.489 568.38 708.251 567.705 710.235 567.429C712.219 567.154 714.365 567.198 716.672 567.561C718.979 567.924 721.395 568.531 723.921 569.381L725.335 570.07C727.561 571.534 729.529 573.063 731.237 574.655C732.945 576.248 734.303 577.91 735.309 579.642C736.316 581.374 736.87 583.178 736.971 585.052C737.072 586.926 736.633 588.867 735.655 590.874C734.588 593.066 733.24 594.767 731.612 595.976C729.994 597.216 728.168 597.999 726.133 598.326C724.109 598.683 721.937 598.614 719.619 598.118C717.311 597.653 714.917 596.817 712.439 595.61ZM716.104 586.446L716.749 586.76C718.101 587.418 719.421 587.935 720.709 588.309C722.008 588.713 723.222 588.899 724.353 588.867C725.505 588.845 726.546 588.554 727.478 587.994C728.4 587.454 729.17 586.549 729.788 585.279C730.377 584.07 730.671 582.946 730.671 581.907C730.67 580.867 730.436 579.892 729.968 578.979C729.489 578.087 728.803 577.259 727.909 576.494C727.035 575.738 726.008 575.036 724.829 574.386L720.804 572.425C719.156 571.698 717.592 571.266 716.113 571.128C714.644 571.021 713.312 571.285 712.116 571.919C710.931 572.584 709.949 573.715 709.17 575.313C708.562 576.562 708.304 577.717 708.396 578.776C708.489 579.834 708.876 580.809 709.558 581.698C710.23 582.609 711.125 583.45 712.244 584.223C713.383 585.006 714.67 585.747 716.104 586.446Z" fill="white"/>
<path d="M687.054 618.733C687.637 619.132 688.279 619.324 688.981 619.307C689.682 619.291 690.546 618.958 691.572 618.307C692.604 617.688 693.875 616.639 695.385 615.161C696.78 613.851 698.188 612.703 699.61 611.716C701.038 610.761 702.453 610.046 703.856 609.57C705.246 609.114 706.626 608.955 707.996 609.092C709.384 609.243 710.727 609.762 712.024 610.651C713.302 611.527 714.318 612.623 715.073 613.941C715.814 615.278 716.263 616.76 716.419 618.386C716.582 620.044 716.392 621.792 715.85 623.631C715.314 625.501 714.396 627.386 713.095 629.284C711.279 631.935 709.298 633.919 707.151 635.238C704.992 636.576 702.822 637.244 700.641 637.241C698.467 637.27 696.439 636.641 694.56 635.353L700.124 627.233C700.913 627.774 701.734 628.087 702.586 628.174C703.444 628.292 704.29 628.126 705.124 627.675C705.963 627.256 706.757 626.502 707.504 625.411C708.122 624.509 708.497 623.62 708.628 622.743C708.778 621.879 708.712 621.088 708.431 620.37C708.155 619.684 707.707 619.128 707.086 618.703C706.617 618.381 706.129 618.186 705.624 618.116C705.126 618.078 704.571 618.182 703.961 618.427C703.352 618.672 702.67 619.061 701.918 619.595C701.171 620.161 700.327 620.909 699.386 621.838C697.428 623.728 695.49 625.287 693.572 626.514C691.673 627.754 689.755 628.457 687.819 628.622C685.902 628.799 683.947 628.206 681.955 626.84C680.601 625.913 679.567 624.762 678.851 623.388C678.135 622.014 677.741 620.473 677.668 618.765C677.613 617.071 677.892 615.273 678.504 613.372C679.122 611.503 680.101 609.591 681.44 607.636C683.385 604.798 685.541 602.739 687.909 601.461C690.263 600.202 692.568 599.599 694.824 599.653C697.085 599.738 699.043 600.348 700.698 601.481L695.423 609.179C694.289 608.457 693.202 608.127 692.165 608.189C691.115 608.271 690.156 608.622 689.289 609.243C688.408 609.883 687.633 610.692 686.963 611.669C686.242 612.722 685.784 613.692 685.59 614.581C685.414 615.483 685.448 616.279 685.692 616.971C685.942 617.695 686.396 618.282 687.054 618.733Z" fill="white"/>
<path d="M687.517 660.953L659.523 636.786L665.978 629.309L693.972 653.476L687.517 660.953ZM701.67 659.309C702.757 660.247 703.326 661.401 703.378 662.77C703.43 664.14 702.905 665.463 701.803 666.739C700.716 667.998 699.492 668.702 698.129 668.85C696.752 669.016 695.52 668.63 694.433 667.692C693.347 666.754 692.785 665.591 692.748 664.205C692.696 662.835 693.213 661.521 694.3 660.262C695.402 658.985 696.634 658.273 697.997 658.125C699.359 657.976 700.584 658.371 701.67 659.309Z" fill="white"/>
<path d="M663.408 685.472L658.566 680.455L674.058 665.5L678.901 670.516L663.408 685.472ZM681.403 680.786L674.321 687.622L650.036 662.465C649.292 661.695 648.624 661.199 648.032 660.979C647.423 660.775 646.835 660.789 646.267 661.021C645.714 661.269 645.127 661.694 644.504 662.295C644.061 662.722 643.683 663.119 643.371 663.484C643.058 663.881 642.802 664.223 642.603 664.51L637.546 659.32C637.963 658.538 638.468 657.749 639.062 656.954C639.657 656.158 640.38 655.349 641.232 654.526C642.79 653.023 644.396 651.963 646.05 651.348C647.705 650.765 649.397 650.746 651.128 651.293C652.858 651.839 654.626 653.046 656.43 654.915L681.403 680.786Z" fill="white"/>
<path d="M616.324 675.256C618.62 673.532 620.952 672.35 623.322 671.71C625.705 671.088 628.026 670.954 630.287 671.308C632.53 671.675 634.638 672.471 636.612 673.695C638.6 674.938 640.333 676.543 641.811 678.51L642.633 679.604C644.316 681.844 645.537 684.133 646.295 686.471C647.054 688.808 647.354 691.105 647.196 693.361C647.02 695.63 646.35 697.773 645.185 699.788C644.033 701.822 642.383 703.646 640.233 705.261C638.138 706.835 636.02 707.885 633.878 708.41C631.737 708.936 629.64 708.972 627.589 708.518C625.52 708.077 623.532 707.177 621.626 705.816C619.734 704.473 617.973 702.717 616.345 700.549L613.881 697.27L637.383 679.615L641.324 684.861L625.556 696.707L626.008 697.308C626.829 698.401 627.762 699.225 628.806 699.781C629.845 700.368 630.948 700.622 632.115 700.544C633.282 700.465 634.475 699.967 635.696 699.05C636.734 698.27 637.456 697.372 637.861 696.355C638.266 695.339 638.397 694.243 638.255 693.067C638.094 691.905 637.715 690.679 637.117 689.39C636.514 688.133 635.72 686.848 634.735 685.537L633.914 684.443C633.024 683.259 632.039 682.289 630.958 681.534C629.859 680.792 628.727 680.289 627.56 680.026C626.375 679.776 625.185 679.786 623.991 680.056C622.779 680.339 621.599 680.912 620.452 681.774C619.031 682.842 617.915 684.108 617.105 685.571C616.291 687.067 615.861 688.714 615.817 690.514L608.871 689.235C608.82 687.877 609.023 686.384 609.482 684.757C609.923 683.143 610.692 681.511 611.789 679.86C612.9 678.228 614.412 676.693 616.324 675.256Z" fill="white"/>
</svg>
