{
	"asset":{
		"generator":"Khronos glTF Blender I/O v3.5.30",
		"version":"2.0"
	},
	"scene":0,
	"scenes":[
		{
			"name":"Scene",
			"nodes":[
				0
			]
		}
	],
	"nodes":[
		{
			"mesh":0,
			"name":"Curve",
			"scale":[
				5,
				5,
				5
			]
		}
	],
	"materials":[
		{
			"doubleSided":true,
			"name":"SVGMat",
			"pbrMetallicRoughness":{
				"baseColorFactor":[
					1,
					1,
					1,
					1
				],
				"metallicFactor":0,
				"roughnessFactor":0.4000000059604645
			}
		}
	],
	"meshes":[
		{
			"name":"Curve",
			"primitives":[
				{
					"attributes":{
						"POSITION":0,
						"TEXCOORD_0":1,
						"NORMAL":2
					},
					"indices":3,
					"material":0
				}
			]
		}
	],
	"accessors":[
		{
			"bufferView":0,
			"componentType":5126,
			"count":40248,
			"max":[
				0.35367685556411743,
				0,
				-0.0171242356300354
			],
			"min":[
				0.0035673619713634253,
				0,
				-0.268098920583725
			],
			"type":"VEC3"
		},
		{
			"bufferView":1,
			"componentType":5126,
			"count":40248,
			"type":"VEC2"
		},
		{
			"bufferView":2,
			"componentType":5126,
			"count":40248,
			"type":"VEC3"
		},
		{
			"bufferView":3,
			"componentType":5123,
			"count":120228,
			"type":"SCALAR"
		}
	],
	"bufferViews":[
		{
			"buffer":0,
			"byteLength":482976,
			"byteOffset":0,
			"target":34962
		},
		{
			"buffer":0,
			"byteLength":321984,
			"byteOffset":482976,
			"target":34962
		},
		{
			"buffer":0,
			"byteLength":482976,
			"byteOffset":804960,
			"target":34962
		},
		{
			"buffer":0,
			"byteLength":240456,
			"byteOffset":1287936,
			"target":34963
		}
	],
	"buffers":[
		{
			"byteLength":1528392,
			"uri":"data:application/octet-stream;base64,"
		}
	]
}
