<svg width="1519" height="137" viewBox="0 0 1519 137" fill="none" xmlns="http://www.w3.org/2000/svg">
<path d="M11.9961 15.4043C13.4173 15.4043 14.1279 16.0186 14.1279 17.2471C14.1279 18.1143 13.61 18.8971 12.5742 19.5957C10.6712 20.9447 9.71973 22.3057 9.71973 23.6787C9.71973 24.4977 10.2738 25.5094 11.3818 26.7139C12.514 27.8942 13.0801 29.1468 13.0801 30.4717C13.0801 31.7965 12.6706 32.8444 11.8516 33.6152C11.0566 34.3861 9.9847 34.7715 8.63574 34.7715C7.31087 34.7715 6.16667 34.1813 5.20312 33.001C4.26367 31.8206 3.79395 30.4596 3.79395 28.918C3.79395 24.7266 4.91406 21.2699 7.1543 18.5479C8.21419 17.2471 9.17773 16.404 10.0449 16.0186C10.9362 15.609 11.5866 15.4043 11.9961 15.4043ZM24.9678 15.4043C26.389 15.4043 27.0996 16.0186 27.0996 17.2471C27.0996 18.1143 26.5817 18.8971 25.5459 19.5957C23.6429 20.9447 22.6914 22.3057 22.6914 23.6787C22.6914 24.4977 23.2454 25.5094 24.3535 26.7139C25.4857 27.8942 26.0518 29.1468 26.0518 30.4717C26.0518 31.7965 25.6423 32.8444 24.8232 33.6152C24.0283 34.3861 22.9564 34.7715 21.6074 34.7715C20.2826 34.7715 19.1383 34.1813 18.1748 33.001C17.2354 31.8206 16.7656 30.4596 16.7656 28.918C16.7656 24.7266 17.8857 21.2699 20.126 18.5479C21.1859 17.2471 22.1494 16.404 23.0166 16.0186C23.9079 15.609 24.5583 15.4043 24.9678 15.4043ZM46.3223 72.7832L39.457 73C38.373 73 37.5179 72.7471 36.8916 72.2412C36.2653 71.7113 35.9521 71.0127 35.9521 70.1455C35.9521 69.2783 36.3135 68.5677 37.0361 68.0137C37.7829 67.4596 38.7705 67.1826 39.999 67.1826H43.0703V22.6309H39.999C38.7705 22.6309 37.7829 22.3659 37.0361 21.8359C36.3135 21.306 35.9521 20.6074 35.9521 19.7402C35.9521 18.873 36.2653 18.1745 36.8916 17.6445C37.5179 17.0905 38.373 16.8135 39.457 16.8135L46.3223 17.0664L52.6455 16.8135C54.6208 16.8135 55.8372 17.4036 56.2949 18.584C56.4395 18.9212 56.5117 19.2705 56.5117 19.6318C56.5117 21.6312 54.9941 22.6309 51.959 22.6309H49.791V67.1826H51.959C53.6452 67.1826 54.8255 67.4837 55.5 68.0859C56.1745 68.6641 56.5117 69.2542 56.5117 69.8564C56.5117 71.9521 55.223 73 52.6455 73L46.3223 72.7832ZM114.252 65.2676C115.818 65.2676 116.601 66.1829 116.601 68.0137C116.601 69.3867 115.709 70.6514 113.927 71.8076C112.168 72.9639 110.097 73.542 107.712 73.542C103.689 73.542 101.003 71.639 99.6543 67.833C99.1966 66.5322 98.9678 64.9906 98.9678 63.208V24.1123C98.9678 23.1729 98.8835 22.5827 98.7148 22.3418C98.5703 22.1009 98.3535 21.9805 98.0645 21.9805L94.9209 22.4141C93.9814 22.4141 93.1986 22.1732 92.5723 21.6914C91.9701 21.2096 91.6689 20.5352 91.6689 19.668C91.6689 17.8372 92.9697 16.7894 95.5713 16.5244C97.2575 16.3799 98.5703 16.1631 99.5098 15.874C100.473 15.5609 101.449 15.4043 102.437 15.4043C104.315 15.4043 105.255 16.5605 105.255 18.873V59.0889C105.255 62.4613 105.424 64.6172 105.761 65.5566C106.098 66.472 106.471 67.0742 106.881 67.3633C107.29 67.6523 107.917 67.7969 108.76 67.7969C109.627 67.7969 110.398 67.4958 111.072 66.8936C111.771 66.2913 112.313 65.8698 112.698 65.6289C113.084 65.388 113.602 65.2676 114.252 65.2676ZM138.605 73L131.812 72.7832C130.801 72.7832 130.042 72.7952 129.536 72.8193L127.946 72.8916C126.742 72.9639 125.682 73 124.767 73C122.43 73 121.262 72.1087 121.262 70.3262C121.262 69.459 121.623 68.7845 122.346 68.3027C123.092 67.821 124.08 67.5801 125.309 67.5801H128.127V44.0215C128.127 42.5762 127.814 41.8535 127.188 41.8535C126.898 41.8535 126.441 41.9378 125.814 42.1064C125.212 42.2751 124.526 42.3594 123.755 42.3594C123.008 42.3594 122.334 42.1064 121.731 41.6006C121.129 41.0947 120.828 40.4082 120.828 39.541C120.828 37.7103 122.129 36.6624 124.73 36.3975C126.344 36.2529 127.657 36.0361 128.669 35.7471C129.705 35.458 130.704 35.3135 131.668 35.3135C133.475 35.3135 134.378 36.4697 134.378 38.7822V67.5801H137.232C140.268 67.5801 141.785 68.5316 141.785 70.4346C141.785 71.109 141.484 71.7113 140.882 72.2412C140.304 72.7471 139.545 73 138.605 73ZM135.715 22.9199C135.715 25.2565 134.727 26.7741 132.752 27.4727C132.198 27.6654 131.415 27.7617 130.403 27.7617C129.392 27.7617 128.464 27.3643 127.621 26.5693C126.778 25.7744 126.356 24.7386 126.356 23.4619C126.356 22.1852 126.79 21.1253 127.657 20.2822C128.549 19.4391 129.705 19.0176 131.126 19.0176C132.571 19.0176 133.691 19.403 134.486 20.1738C135.305 20.9206 135.715 21.8359 135.715 22.9199ZM161.297 73L154.685 72.7832L151.035 72.8916C150.096 72.9639 149.144 73 148.181 73C145.868 73 144.712 72.1087 144.712 70.3262C144.712 69.459 145.073 68.7845 145.796 68.3027C146.519 67.821 147.518 67.5801 148.795 67.5801H151.902V24.1484C151.902 22.7031 151.613 21.9805 151.035 21.9805C150.842 21.9805 150.626 22.0046 150.385 22.0527L149.518 22.2695C148.915 22.39 148.361 22.4502 147.855 22.4502C145.736 22.4502 144.676 21.4746 144.676 19.5234C144.676 18.7526 145.013 18.1022 145.688 17.5723C146.362 17.0182 147.398 16.681 148.795 16.5605C150.216 16.416 151.264 16.2474 151.938 16.0547L153.564 15.585C153.998 15.4645 154.468 15.4043 154.974 15.4043C157.166 15.4043 158.262 16.5726 158.262 18.9092V53.1992C163.296 51.5371 167.777 48.8633 171.703 45.1777C172.98 43.9733 174.052 42.7207 174.919 41.4199L170.8 41.6367C169.644 41.6367 168.728 41.3838 168.054 40.8779C167.403 40.3721 167.078 39.7096 167.078 38.8906C167.078 38.0475 167.427 37.373 168.126 36.8672C168.825 36.3613 169.824 36.1084 171.125 36.1084L178.568 36.3975L184.892 35.9639C186.168 35.9639 187.084 36.2288 187.638 36.7588C188.216 37.2887 188.505 37.9391 188.505 38.71C188.505 40.5407 187.24 41.4561 184.711 41.4561H183.555C183.097 41.4561 182.567 41.432 181.965 41.3838C179.845 44.7803 176.629 48.1165 172.317 51.3926C174.967 54.4036 177.183 57.3786 178.966 60.3174L183.266 67.5801H185.723C188.758 67.5801 190.275 68.5316 190.275 70.4346C190.275 71.109 189.986 71.7113 189.408 72.2412C188.83 72.7471 188.071 73 187.132 73L180.158 72.7832L176.509 72.8916C175.569 72.9639 174.497 73 173.293 73C170.98 73 169.824 72.1087 169.824 70.3262C169.824 69.459 170.186 68.7845 170.908 68.3027C171.631 67.821 172.631 67.5801 173.907 67.5801H176.364C173.329 62.2083 170.378 57.8844 167.512 54.6084C164.308 56.5114 161.225 57.8844 158.262 58.7275V67.5801H159.888C162.923 67.5801 164.44 68.5316 164.44 70.4346C164.44 71.109 164.151 71.7113 163.573 72.2412C162.995 72.7471 162.236 73 161.297 73ZM201.946 51.1758L204.439 51.248C205.258 51.2721 207.884 51.2842 212.316 51.2842C216.749 51.2842 219.651 50.9229 221.024 50.2002C222.397 49.4775 223.084 48.3815 223.084 46.9121C223.084 45.4427 222.253 44.1419 220.591 43.0098C218.929 41.8776 217.086 41.3115 215.062 41.3115C211.521 41.3115 208.607 42.2148 206.318 44.0215C204.03 45.8281 202.573 48.2129 201.946 51.1758ZM226.191 61.6182C228.311 61.6182 229.371 62.5697 229.371 64.4727C229.371 65.3398 229.034 66.3154 228.359 67.3994C227.709 68.4593 226.745 69.4469 225.469 70.3623C222.482 72.4821 218.567 73.542 213.726 73.542C208.908 73.542 204.729 71.916 201.188 68.6641C199.429 67.0501 198.02 65.0628 196.96 62.7021C195.9 60.3415 195.37 57.752 195.37 54.9336C195.37 49.4414 197.177 44.8525 200.79 41.167C204.403 37.4574 208.956 35.6025 214.448 35.6025C219.025 35.6025 222.65 36.7227 225.324 38.9629C228.022 41.179 229.371 43.9131 229.371 47.165C229.371 50.417 228.058 52.8499 225.433 54.4639C222.807 56.0537 217.821 56.8486 210.474 56.8486C208.522 56.8486 205.632 56.7764 201.802 56.6318C202.235 60.3656 203.681 63.1719 206.138 65.0508C208.595 66.9056 211.16 67.833 213.834 67.833C216.508 67.833 218.616 67.5439 220.157 66.9658C221.723 66.3636 222.843 65.3278 223.518 63.8584C224.216 62.3649 225.107 61.6182 226.191 61.6182ZM286.605 73L279.812 72.7832C278.801 72.7832 278.042 72.7952 277.536 72.8193L275.946 72.8916C274.742 72.9639 273.682 73 272.767 73C270.43 73 269.262 72.1087 269.262 70.3262C269.262 69.459 269.623 68.7845 270.346 68.3027C271.092 67.821 272.08 67.5801 273.309 67.5801H276.127V44.0215C276.127 42.5762 275.814 41.8535 275.188 41.8535C274.898 41.8535 274.441 41.9378 273.814 42.1064C273.212 42.2751 272.526 42.3594 271.755 42.3594C271.008 42.3594 270.334 42.1064 269.731 41.6006C269.129 41.0947 268.828 40.4082 268.828 39.541C268.828 37.7103 270.129 36.6624 272.73 36.3975C274.344 36.2529 275.657 36.0361 276.669 35.7471C277.705 35.458 278.704 35.3135 279.668 35.3135C281.475 35.3135 282.378 36.4697 282.378 38.7822V67.5801H285.232C288.268 67.5801 289.785 68.5316 289.785 70.4346C289.785 71.109 289.484 71.7113 288.882 72.2412C288.304 72.7471 287.545 73 286.605 73ZM283.715 22.9199C283.715 25.2565 282.727 26.7741 280.752 27.4727C280.198 27.6654 279.415 27.7617 278.403 27.7617C277.392 27.7617 276.464 27.3643 275.621 26.5693C274.778 25.7744 274.356 24.7386 274.356 23.4619C274.356 22.1852 274.79 21.1253 275.657 20.2822C276.549 19.4391 277.705 19.0176 279.126 19.0176C280.571 19.0176 281.691 19.403 282.486 20.1738C283.305 20.9206 283.715 21.8359 283.715 22.9199ZM305.72 36.3975L314.861 36.1445C316.283 36.1445 317.282 36.4095 317.86 36.9395C318.438 37.4453 318.728 38.0716 318.728 38.8184C318.728 39.5651 318.402 40.2275 317.752 40.8057C317.102 41.3838 316.114 41.6729 314.789 41.6729C313.488 41.6729 311.67 41.6126 309.333 41.4922L305.72 41.3838V58.7275C305.72 62.3167 305.973 64.6051 306.479 65.5928C307.008 66.5804 307.526 67.1947 308.032 67.4355C308.562 67.6764 309.357 67.7969 310.417 67.7969C311.477 67.7969 312.477 67.3753 313.416 66.5322C314.355 65.665 315.042 65.099 315.476 64.834C315.933 64.5449 316.511 64.4004 317.21 64.4004C317.933 64.4004 318.535 64.6774 319.017 65.2314C319.522 65.7855 319.775 66.4359 319.775 67.1826C319.775 68.7484 318.788 70.2057 316.812 71.5547C314.861 72.8796 312.802 73.542 310.634 73.542C306.852 73.542 304.034 72.5664 302.179 70.6152C300.348 68.64 299.433 66.0505 299.433 62.8467V41.6367C298.59 41.709 297.662 41.7451 296.65 41.7451C295.663 41.7451 294.844 41.4801 294.193 40.9502C293.567 40.4202 293.254 39.7337 293.254 38.8906C293.254 38.0234 293.567 37.349 294.193 36.8672C294.844 36.3854 295.627 36.1445 296.542 36.1445C297.481 36.1445 298.433 36.1686 299.396 36.2168C299.372 35.4219 299.348 34.4824 299.324 33.3984L299.18 30.2188C299.156 29.1589 299.119 28.2194 299.071 27.4004C299.047 26.5814 299.035 26.0394 299.035 25.7744C299.035 24.5459 299.372 23.6305 300.047 23.0283C300.721 22.4261 301.564 22.125 302.576 22.125C304.889 22.125 306.045 23.4619 306.045 26.1357L305.72 36.3975ZM326.243 84.4902C324.822 84.4902 324.111 83.876 324.111 82.6475C324.111 81.7803 324.689 80.9492 325.846 80.1543C328.206 78.5163 329.387 77.0107 329.387 75.6377C329.387 74.8187 329.001 73.9997 328.23 73.1807C326.641 71.4945 325.846 69.9648 325.846 68.5918C325.846 67.1947 326.267 66.0866 327.11 65.2676C327.978 64.4486 329.134 64.0391 330.579 64.0391C332.049 64.0391 333.253 64.6533 334.192 65.8818C335.156 67.1104 335.638 68.4954 335.638 70.0371C335.638 72.8314 334.903 75.6377 333.434 78.4561C331.988 81.2985 330.133 83.1895 327.869 84.1289C327.243 84.3698 326.701 84.4902 326.243 84.4902ZM385.465 72.7832L378.6 73C377.516 73 376.66 72.7471 376.034 72.2412C375.408 71.7113 375.095 71.0127 375.095 70.1455C375.095 69.2783 375.456 68.5677 376.179 68.0137C376.925 67.4596 377.913 67.1826 379.142 67.1826H382.213V22.6309H379.142C377.913 22.6309 376.925 22.3659 376.179 21.8359C375.456 21.306 375.095 20.6074 375.095 19.7402C375.095 18.873 375.408 18.1745 376.034 17.6445C376.66 17.0905 377.516 16.8135 378.6 16.8135L385.465 17.0664L391.788 16.8135C393.763 16.8135 394.98 17.4036 395.438 18.584C395.582 18.9212 395.654 19.2705 395.654 19.6318C395.654 21.6312 394.137 22.6309 391.102 22.6309H388.934V67.1826H391.102C392.788 67.1826 393.968 67.4837 394.643 68.0859C395.317 68.6641 395.654 69.2542 395.654 69.8564C395.654 71.9521 394.366 73 391.788 73L385.465 72.7832ZM495.345 36.3613C497.296 36.3613 498.271 37.1442 498.271 38.71C498.271 39.4808 497.657 40.36 496.429 41.3477C495.224 42.3112 494.237 43.335 493.466 44.4189C492.695 45.5029 491.804 47.3457 490.792 49.9473L483.096 69.9287C482.975 70.29 482.879 70.5911 482.807 70.832C482.06 73.1445 480.59 74.3008 478.398 74.3008C477.435 74.3008 476.556 73.9876 475.761 73.3613C474.966 72.7591 474.412 71.8919 474.099 70.7598C474.05 70.5671 473.966 70.3141 473.846 70.001C473.749 69.6637 473.593 69.1579 473.376 68.4834C473.183 67.8089 472.906 66.9176 472.545 65.8096L465.86 45.9727C461.404 58.9082 459.043 65.7493 458.778 66.4961L456.936 71.5908C456.237 73.3975 454.864 74.3008 452.816 74.3008C450.793 74.3008 449.396 73.3975 448.625 71.5908C448.505 71.3018 448.36 70.9525 448.191 70.543L440.314 49.6943C438.773 45.9606 437.352 43.5277 436.051 42.3955C435.617 42.0101 434.979 41.5042 434.136 40.8779C433.317 40.2275 432.907 39.4085 432.907 38.4209C432.907 37.0479 433.907 36.3613 435.906 36.3613L439.664 36.6143C440.339 36.6143 440.941 36.6022 441.471 36.5781L442.808 36.4697C443.145 36.4456 443.615 36.3854 444.217 36.2891C444.819 36.1927 445.734 36.1445 446.963 36.1445C448.191 36.1445 449.095 36.3734 449.673 36.8311C450.251 37.2887 450.54 37.8548 450.54 38.5293C450.54 40.7214 448.673 41.8174 444.939 41.8174H443.819L452.925 65.8096L460.91 41.8535C462.018 38.5534 463.68 36.9033 465.896 36.9033C467.101 36.9033 468.028 37.2526 468.679 37.9512C469.353 38.6257 470.004 39.9144 470.63 41.8174L478.435 65.8096L487.648 41.8174H486.312C482.578 41.8174 480.711 40.7214 480.711 38.5293C480.711 37.8548 481 37.2887 481.578 36.8311C482.18 36.3734 483.06 36.1445 484.216 36.1445L491.551 36.6143L495.345 36.3613ZM529.418 57.9688C525.516 57.222 522.047 56.8486 519.012 56.8486C516.001 56.8486 513.772 57.4508 512.327 58.6553C510.906 59.8356 510.195 61.1846 510.195 62.7021C510.195 64.2197 510.858 65.4723 512.183 66.46C513.507 67.4235 515.362 67.9053 517.747 67.9053C522.637 67.9053 526.527 66.3275 529.418 63.1719V57.9688ZM530.249 68.7725C527.599 71.9521 523.203 73.542 517.061 73.542C512.965 73.542 509.701 72.6025 507.269 70.7236C504.86 68.8447 503.655 66.3034 503.655 63.0996C503.655 57.776 506.606 54.3073 512.508 52.6934C514.507 52.1634 517.085 51.8984 520.24 51.8984C523.42 51.8984 526.479 52.2598 529.418 52.9824V49.0078C529.418 45.0332 527.828 42.6003 524.648 41.709C523.516 41.3717 521.999 41.2031 520.096 41.2031C516.025 41.2031 513.676 42.2871 513.05 44.4551C512.664 45.6113 511.978 46.4424 510.99 46.9482C510.557 47.165 510.063 47.2734 509.509 47.2734C507.22 47.2734 506.076 46.0449 506.076 43.5879C506.076 41.4922 507.449 39.6374 510.195 38.0234C512.965 36.4095 516.47 35.6025 520.71 35.6025C527.888 35.6025 532.525 38.1439 534.621 43.2266C535.32 44.9609 535.669 47.0085 535.669 49.3691V58.7275C535.669 62.0036 535.801 64.2077 536.066 65.3398C536.331 66.4479 536.825 67.2308 537.548 67.6885C538.825 68.5075 539.463 69.459 539.463 70.543C539.463 72.5423 538.198 73.542 535.669 73.542C533.164 73.542 531.357 71.9521 530.249 68.7725ZM561.721 73.542C559.625 73.542 557.602 73.3734 555.65 73.0361C554.663 74.7705 553.627 75.6377 552.543 75.6377C551.001 75.6377 550.23 74.9271 550.23 73.5059C550.23 72.2533 549.905 71.085 549.255 70.001C548.629 68.917 548.075 68.0137 547.593 67.291C545.979 64.8822 545.172 63.196 545.172 62.2324C545.172 61.2689 545.449 60.5583 546.003 60.1006C546.557 59.6429 547.171 59.4141 547.846 59.4141C549.171 59.4141 550.363 60.474 551.423 62.5938C552.507 64.6895 553.784 66.0866 555.253 66.7852C556.722 67.4837 559.035 67.833 562.19 67.833C566.84 67.833 569.863 66.5081 571.26 63.8584C571.693 63.0635 571.91 62.1963 571.91 61.2568C571.91 59.3779 571.091 58.0531 569.453 57.2822C567.815 56.4873 565.274 55.9814 561.829 55.7646C558.384 55.5479 555.843 55.1745 554.205 54.6445C549.436 53.0306 547.051 50.1641 547.051 46.0449C547.051 43.5156 548.376 41.2393 551.025 39.2158C553.699 37.1683 557.602 36.1445 562.732 36.1445C563.816 36.1445 564.9 36.2409 565.984 36.4336C565.743 35.7591 565.623 35.193 565.623 34.7354C565.623 34.2777 565.828 33.8561 566.237 33.4707C566.647 33.0612 567.153 32.8564 567.755 32.8564C568.381 32.8564 568.863 33.013 569.2 33.3262C569.537 33.6393 569.923 34.2295 570.356 35.0967C570.79 35.9398 571.621 37.1562 572.85 38.7461C574.078 40.3118 574.837 41.3958 575.126 41.998C575.439 42.5762 575.596 43.2025 575.596 43.877C575.596 44.5514 575.379 45.1175 574.945 45.5752C574.536 46.0329 573.982 46.2617 573.283 46.2617C571.958 46.2617 570.766 45.3825 569.706 43.624C569.176 42.7327 568.405 42.1185 567.394 41.7812C566.382 41.444 564.623 41.2754 562.118 41.2754C559.613 41.2754 557.602 41.7331 556.084 42.6484C554.59 43.5397 553.844 44.5996 553.844 45.8281C553.844 47.0566 554.229 47.9118 555 48.3936C556.421 49.3089 558.637 49.8509 561.648 50.0195C567.43 50.3568 571.621 51.3444 574.223 52.9824C576.848 54.6204 578.161 57.0654 578.161 60.3174C578.161 64.4847 576.571 67.7367 573.392 70.0732C570.212 72.3857 566.322 73.542 561.721 73.542ZM641.213 63.6416V45.1777C641.213 44.8164 641.237 44.4671 641.285 44.1299C638.804 42.1546 635.889 41.167 632.541 41.167C629.193 41.167 626.314 42.4798 623.905 45.1055C621.496 47.7311 620.292 50.7542 620.292 54.1748C620.292 58.6071 621.388 61.9915 623.58 64.3281C625.772 66.6647 628.651 67.833 632.216 67.833C635.781 67.833 638.78 66.4359 641.213 63.6416ZM642.839 38.6016C643.971 36.6022 645.645 35.6025 647.861 35.6025C650.077 35.6025 651.186 36.6504 651.186 38.7461C651.186 39.7578 650.692 40.5889 649.704 41.2393C648.741 41.8656 648.126 42.7568 647.861 43.9131C647.62 45.0452 647.5 47.2253 647.5 50.4531V72.6748C647.5 78.6247 646.019 83.334 643.056 86.8027C640.093 90.2956 636.142 92.042 631.204 92.042C627.157 92.042 623.953 91.1507 621.593 89.3682C619.232 87.5856 618.052 85.3815 618.052 82.7559C618.052 80.877 618.558 79.2871 619.569 77.9863C620.581 76.7096 621.882 76.0713 623.472 76.0713C624.411 76.0713 625.266 76.3844 626.037 77.0107C626.832 77.637 627.229 78.3115 627.229 79.0342C627.229 79.7568 627.109 80.2747 626.868 80.5879C626.627 80.901 626.362 81.1901 626.073 81.4551C625.808 81.7201 625.507 81.9609 625.17 82.1777C624.833 82.4186 624.664 82.7318 624.664 83.1172C624.664 84.0085 625.182 84.7432 626.218 85.3213C627.278 85.8994 628.759 86.1885 630.662 86.1885C634.107 86.1885 636.72 85.0443 638.503 82.7559C640.31 80.4915 641.213 77.2878 641.213 73.1445V69.9287C638.539 72.3376 635.335 73.542 631.602 73.542C626.639 73.542 622.46 71.8678 619.063 68.5195C615.667 65.1712 613.969 60.6426 613.969 54.9336C613.969 49.2005 615.775 44.5514 619.389 40.9863C623.002 37.3971 627.591 35.6025 633.155 35.6025C635.998 35.6025 638.563 36.1686 640.852 37.3008C641.598 37.6621 642.261 38.0957 642.839 38.6016ZM662.965 54.4277C662.965 58.4023 664.097 61.6302 666.361 64.1113C668.65 66.5924 671.552 67.833 675.069 67.833C678.586 67.833 681.417 66.6647 683.561 64.3281C685.729 61.9915 686.812 58.8721 686.812 54.9697C686.812 48.4899 684.512 44.2624 679.911 42.2871C678.394 41.6367 676.683 41.3115 674.78 41.3115C671.143 41.3115 668.264 42.5039 666.145 44.8887C664.025 47.2493 662.965 50.429 662.965 54.4277ZM656.678 54.8252C656.678 49.3089 658.424 44.7321 661.917 41.0947C665.434 37.4333 669.842 35.6025 675.142 35.6025C680.465 35.6025 684.789 37.3008 688.113 40.6973C691.462 44.0697 693.136 48.5863 693.136 54.2471C693.136 59.8838 691.389 64.5088 687.896 68.1221C684.428 71.7354 679.983 73.542 674.563 73.542C669.168 73.542 664.832 71.7956 661.556 68.3027C658.304 64.8099 656.678 60.3174 656.678 54.8252ZM706.107 54.4277C706.107 58.4023 707.24 61.6302 709.504 64.1113C711.792 66.5924 714.695 67.833 718.212 67.833C721.729 67.833 724.559 66.6647 726.703 64.3281C728.871 61.9915 729.955 58.8721 729.955 54.9697C729.955 48.4899 727.655 44.2624 723.054 42.2871C721.536 41.6367 719.826 41.3115 717.923 41.3115C714.285 41.3115 711.407 42.5039 709.287 44.8887C707.167 47.2493 706.107 50.429 706.107 54.4277ZM699.82 54.8252C699.82 49.3089 701.567 44.7321 705.06 41.0947C708.576 37.4333 712.985 35.6025 718.284 35.6025C723.608 35.6025 727.932 37.3008 731.256 40.6973C734.604 44.0697 736.278 48.5863 736.278 54.2471C736.278 59.8838 734.532 64.5088 731.039 68.1221C727.57 71.7354 723.126 73.542 717.706 73.542C712.31 73.542 707.974 71.7956 704.698 68.3027C701.446 64.8099 699.82 60.3174 699.82 54.8252ZM770.532 43.9854C768.196 42.2028 765.317 41.3115 761.896 41.3115C758.5 41.3115 755.621 42.5521 753.261 45.0332C750.924 47.5143 749.756 50.7663 749.756 54.7891C749.756 58.7878 750.828 61.9674 752.972 64.3281C755.116 66.6647 757.982 67.833 761.571 67.833C765.16 67.833 768.147 66.4479 770.532 63.6777V43.9854ZM771.472 68.9893C768.75 72.0244 765.088 73.542 760.487 73.542C755.886 73.542 751.9 71.8799 748.527 68.5557C745.155 65.2074 743.469 60.7269 743.469 55.1143C743.469 49.4775 745.312 44.8164 748.997 41.1309C752.683 37.4453 757.308 35.6025 762.872 35.6025C765.715 35.6025 768.268 36.2168 770.532 37.4453V24.1123C770.532 23.1729 770.448 22.5827 770.279 22.3418C770.135 22.1009 769.918 21.9805 769.629 21.9805L766.521 22.4141C765.558 22.4141 764.763 22.1732 764.137 21.6914C763.535 21.2096 763.233 20.5352 763.233 19.668C763.233 17.8372 764.546 16.7894 767.172 16.5244C768.954 16.3558 770.279 16.127 771.146 15.8379C772.038 15.5488 772.989 15.4043 774.001 15.4043C775.856 15.4043 776.783 16.5605 776.783 18.873V58.7275C776.783 62.0036 776.916 64.2077 777.181 65.3398C777.446 66.4479 777.939 67.2308 778.662 67.6885C779.915 68.5075 780.541 69.4349 780.541 70.4707C780.541 72.5182 779.3 73.542 776.819 73.542C774.362 73.542 772.58 72.0244 771.472 68.9893ZM843.918 57.9688C840.016 57.222 836.547 56.8486 833.512 56.8486C830.501 56.8486 828.272 57.4508 826.827 58.6553C825.406 59.8356 824.695 61.1846 824.695 62.7021C824.695 64.2197 825.358 65.4723 826.683 66.46C828.007 67.4235 829.862 67.9053 832.247 67.9053C837.137 67.9053 841.027 66.3275 843.918 63.1719V57.9688ZM844.749 68.7725C842.099 71.9521 837.703 73.542 831.561 73.542C827.465 73.542 824.201 72.6025 821.769 70.7236C819.36 68.8447 818.155 66.3034 818.155 63.0996C818.155 57.776 821.106 54.3073 827.008 52.6934C829.007 52.1634 831.585 51.8984 834.74 51.8984C837.92 51.8984 840.979 52.2598 843.918 52.9824V49.0078C843.918 45.0332 842.328 42.6003 839.148 41.709C838.016 41.3717 836.499 41.2031 834.596 41.2031C830.525 41.2031 828.176 42.2871 827.55 44.4551C827.164 45.6113 826.478 46.4424 825.49 46.9482C825.057 47.165 824.563 47.2734 824.009 47.2734C821.72 47.2734 820.576 46.0449 820.576 43.5879C820.576 41.4922 821.949 39.6374 824.695 38.0234C827.465 36.4095 830.97 35.6025 835.21 35.6025C842.388 35.6025 847.025 38.1439 849.121 43.2266C849.82 44.9609 850.169 47.0085 850.169 49.3691V58.7275C850.169 62.0036 850.301 64.2077 850.566 65.3398C850.831 66.4479 851.325 67.2308 852.048 67.6885C853.325 68.5075 853.963 69.459 853.963 70.543C853.963 72.5423 852.698 73.542 850.169 73.542C847.664 73.542 845.857 71.9521 844.749 68.7725ZM872.716 36.3975L881.857 36.1445C883.279 36.1445 884.278 36.4095 884.856 36.9395C885.435 37.4453 885.724 38.0716 885.724 38.8184C885.724 39.5651 885.398 40.2275 884.748 40.8057C884.098 41.3838 883.11 41.6729 881.785 41.6729C880.484 41.6729 878.666 41.6126 876.329 41.4922L872.716 41.3838V58.7275C872.716 62.3167 872.969 64.6051 873.475 65.5928C874.005 66.5804 874.522 67.1947 875.028 67.4355C875.558 67.6764 876.353 67.7969 877.413 67.7969C878.473 67.7969 879.473 67.3753 880.412 66.5322C881.352 65.665 882.038 65.099 882.472 64.834C882.929 64.5449 883.507 64.4004 884.206 64.4004C884.929 64.4004 885.531 64.6774 886.013 65.2314C886.519 65.7855 886.771 66.4359 886.771 67.1826C886.771 68.7484 885.784 70.2057 883.809 71.5547C881.857 72.8796 879.798 73.542 877.63 73.542C873.848 73.542 871.03 72.5664 869.175 70.6152C867.344 68.64 866.429 66.0505 866.429 62.8467V41.6367C865.586 41.709 864.658 41.7451 863.646 41.7451C862.659 41.7451 861.84 41.4801 861.189 40.9502C860.563 40.4202 860.25 39.7337 860.25 38.8906C860.25 38.0234 860.563 37.349 861.189 36.8672C861.84 36.3854 862.623 36.1445 863.538 36.1445C864.478 36.1445 865.429 36.1686 866.393 36.2168C866.368 35.4219 866.344 34.4824 866.32 33.3984L866.176 30.2188C866.152 29.1589 866.116 28.2194 866.067 27.4004C866.043 26.5814 866.031 26.0394 866.031 25.7744C866.031 24.5459 866.368 23.6305 867.043 23.0283C867.717 22.4261 868.561 22.125 869.572 22.125C871.885 22.125 873.041 23.4619 873.041 26.1357L872.716 36.3975ZM939.959 73L933.166 72.7832C932.154 72.7832 931.396 72.7952 930.89 72.8193L929.3 72.8916C928.095 72.9639 927.035 73 926.12 73C923.784 73 922.615 72.1087 922.615 70.3262C922.615 69.459 922.977 68.7845 923.699 68.3027C924.446 67.821 925.434 67.5801 926.662 67.5801H929.48V44.0215C929.48 42.5762 929.167 41.8535 928.541 41.8535C928.252 41.8535 927.794 41.9378 927.168 42.1064C926.566 42.2751 925.879 42.3594 925.108 42.3594C924.362 42.3594 923.687 42.1064 923.085 41.6006C922.483 41.0947 922.182 40.4082 922.182 39.541C922.182 37.7103 923.482 36.6624 926.084 36.3975C927.698 36.2529 929.011 36.0361 930.022 35.7471C931.058 35.458 932.058 35.3135 933.021 35.3135C934.828 35.3135 935.731 36.4697 935.731 38.7822V67.5801H938.586C941.621 67.5801 943.139 68.5316 943.139 70.4346C943.139 71.109 942.838 71.7113 942.235 72.2412C941.657 72.7471 940.898 73 939.959 73ZM937.068 22.9199C937.068 25.2565 936.081 26.7741 934.105 27.4727C933.551 27.6654 932.769 27.7617 931.757 27.7617C930.745 27.7617 929.818 27.3643 928.975 26.5693C928.132 25.7744 927.71 24.7386 927.71 23.4619C927.71 22.1852 928.144 21.1253 929.011 20.2822C929.902 19.4391 931.058 19.0176 932.479 19.0176C933.925 19.0176 935.045 19.403 935.84 20.1738C936.659 20.9206 937.068 21.8359 937.068 22.9199ZM959.073 36.3975L968.215 36.1445C969.636 36.1445 970.636 36.4095 971.214 36.9395C971.792 37.4453 972.081 38.0716 972.081 38.8184C972.081 39.5651 971.756 40.2275 971.105 40.8057C970.455 41.3838 969.467 41.6729 968.143 41.6729C966.842 41.6729 965.023 41.6126 962.687 41.4922L959.073 41.3838V58.7275C959.073 62.3167 959.326 64.6051 959.832 65.5928C960.362 66.5804 960.88 67.1947 961.386 67.4355C961.916 67.6764 962.711 67.7969 963.771 67.7969C964.83 67.7969 965.83 67.3753 966.77 66.5322C967.709 65.665 968.396 65.099 968.829 64.834C969.287 64.5449 969.865 64.4004 970.563 64.4004C971.286 64.4004 971.888 64.6774 972.37 65.2314C972.876 65.7855 973.129 66.4359 973.129 67.1826C973.129 68.7484 972.141 70.2057 970.166 71.5547C968.215 72.8796 966.155 73.542 963.987 73.542C960.205 73.542 957.387 72.5664 955.532 70.6152C953.701 68.64 952.786 66.0505 952.786 62.8467V41.6367C951.943 41.709 951.016 41.7451 950.004 41.7451C949.016 41.7451 948.197 41.4801 947.547 40.9502C946.921 40.4202 946.607 39.7337 946.607 38.8906C946.607 38.0234 946.921 37.349 947.547 36.8672C948.197 36.3854 948.98 36.1445 949.896 36.1445C950.835 36.1445 951.786 36.1686 952.75 36.2168C952.726 35.4219 952.702 34.4824 952.678 33.3984L952.533 30.2188C952.509 29.1589 952.473 28.2194 952.425 27.4004C952.401 26.5814 952.389 26.0394 952.389 25.7744C952.389 24.5459 952.726 23.6305 953.4 23.0283C954.075 22.4261 954.918 22.125 955.93 22.125C958.242 22.125 959.398 23.4619 959.398 26.1357L959.073 36.3975ZM979.597 84.4902C978.175 84.4902 977.465 83.876 977.465 82.6475C977.465 81.7803 978.043 80.9492 979.199 80.1543C981.56 78.5163 982.74 77.0107 982.74 75.6377C982.74 74.8187 982.355 73.9997 981.584 73.1807C979.994 71.4945 979.199 69.9648 979.199 68.5918C979.199 67.1947 979.621 66.0866 980.464 65.2676C981.331 64.4486 982.487 64.0391 983.933 64.0391C985.402 64.0391 986.606 64.6533 987.546 65.8818C988.509 67.1104 988.991 68.4954 988.991 70.0371C988.991 72.8314 988.257 75.6377 986.787 78.4561C985.342 81.2985 983.487 83.1895 981.223 84.1289C980.596 84.3698 980.054 84.4902 979.597 84.4902ZM1038.82 72.7832L1031.95 73C1030.87 73 1030.01 72.7471 1029.39 72.2412C1028.76 71.7113 1028.45 71.0127 1028.45 70.1455C1028.45 69.2783 1028.81 68.5677 1029.53 68.0137C1030.28 67.4596 1031.27 67.1826 1032.5 67.1826H1035.57V22.6309H1032.5C1031.27 22.6309 1030.28 22.3659 1029.53 21.8359C1028.81 21.306 1028.45 20.6074 1028.45 19.7402C1028.45 18.873 1028.76 18.1745 1029.39 17.6445C1030.01 17.0905 1030.87 16.8135 1031.95 16.8135L1038.82 17.0664L1045.14 16.8135C1047.12 16.8135 1048.33 17.4036 1048.79 18.584C1048.94 18.9212 1049.01 19.2705 1049.01 19.6318C1049.01 21.6312 1047.49 22.6309 1044.46 22.6309H1042.29V67.1826H1044.46C1046.14 67.1826 1047.32 67.4837 1048 68.0859C1048.67 68.6641 1049.01 69.2542 1049.01 69.8564C1049.01 71.9521 1047.72 73 1045.14 73L1038.82 72.7832ZM1148.7 36.3613C1150.65 36.3613 1151.62 37.1442 1151.62 38.71C1151.62 39.4808 1151.01 40.36 1149.78 41.3477C1148.58 42.3112 1147.59 43.335 1146.82 44.4189C1146.05 45.5029 1145.16 47.3457 1144.15 49.9473L1136.45 69.9287C1136.33 70.29 1136.23 70.5911 1136.16 70.832C1135.41 73.1445 1133.94 74.3008 1131.75 74.3008C1130.79 74.3008 1129.91 73.9876 1129.11 73.3613C1128.32 72.7591 1127.77 71.8919 1127.45 70.7598C1127.4 70.5671 1127.32 70.3141 1127.2 70.001C1127.1 69.6637 1126.95 69.1579 1126.73 68.4834C1126.54 67.8089 1126.26 66.9176 1125.9 65.8096L1119.21 45.9727C1114.76 58.9082 1112.4 65.7493 1112.13 66.4961L1110.29 71.5908C1109.59 73.3975 1108.22 74.3008 1106.17 74.3008C1104.15 74.3008 1102.75 73.3975 1101.98 71.5908C1101.86 71.3018 1101.71 70.9525 1101.54 70.543L1093.67 49.6943C1092.13 45.9606 1090.71 43.5277 1089.4 42.3955C1088.97 42.0101 1088.33 41.5042 1087.49 40.8779C1086.67 40.2275 1086.26 39.4085 1086.26 38.4209C1086.26 37.0479 1087.26 36.3613 1089.26 36.3613L1093.02 36.6143C1093.69 36.6143 1094.29 36.6022 1094.82 36.5781L1096.16 36.4697C1096.5 36.4456 1096.97 36.3854 1097.57 36.2891C1098.17 36.1927 1099.09 36.1445 1100.32 36.1445C1101.54 36.1445 1102.45 36.3734 1103.03 36.8311C1103.6 37.2887 1103.89 37.8548 1103.89 38.5293C1103.89 40.7214 1102.03 41.8174 1098.29 41.8174H1097.17L1106.28 65.8096L1114.26 41.8535C1115.37 38.5534 1117.03 36.9033 1119.25 36.9033C1120.45 36.9033 1121.38 37.2526 1122.03 37.9512C1122.71 38.6257 1123.36 39.9144 1123.98 41.8174L1131.79 65.8096L1141 41.8174H1139.67C1135.93 41.8174 1134.06 40.7214 1134.06 38.5293C1134.06 37.8548 1134.35 37.2887 1134.93 36.8311C1135.53 36.3734 1136.41 36.1445 1137.57 36.1445L1144.9 36.6143L1148.7 36.3613ZM1182.77 57.9688C1178.87 57.222 1175.4 56.8486 1172.37 56.8486C1169.35 56.8486 1167.13 57.4508 1165.68 58.6553C1164.26 59.8356 1163.55 61.1846 1163.55 62.7021C1163.55 64.2197 1164.21 65.4723 1165.54 66.46C1166.86 67.4235 1168.72 67.9053 1171.1 67.9053C1175.99 67.9053 1179.88 66.3275 1182.77 63.1719V57.9688ZM1183.6 68.7725C1180.95 71.9521 1176.56 73.542 1170.41 73.542C1166.32 73.542 1163.06 72.6025 1160.62 70.7236C1158.21 68.8447 1157.01 66.3034 1157.01 63.0996C1157.01 57.776 1159.96 54.3073 1165.86 52.6934C1167.86 52.1634 1170.44 51.8984 1173.59 51.8984C1176.77 51.8984 1179.83 52.2598 1182.77 52.9824V49.0078C1182.77 45.0332 1181.18 42.6003 1178 41.709C1176.87 41.3717 1175.35 41.2031 1173.45 41.2031C1169.38 41.2031 1167.03 42.2871 1166.4 44.4551C1166.02 45.6113 1165.33 46.4424 1164.34 46.9482C1163.91 47.165 1163.42 47.2734 1162.86 47.2734C1160.57 47.2734 1159.43 46.0449 1159.43 43.5879C1159.43 41.4922 1160.8 39.6374 1163.55 38.0234C1166.32 36.4095 1169.82 35.6025 1174.06 35.6025C1181.24 35.6025 1185.88 38.1439 1187.97 43.2266C1188.67 44.9609 1189.02 47.0085 1189.02 49.3691V58.7275C1189.02 62.0036 1189.15 64.2077 1189.42 65.3398C1189.68 66.4479 1190.18 67.2308 1190.9 67.6885C1192.18 68.5075 1192.82 69.459 1192.82 70.543C1192.82 72.5423 1191.55 73.542 1189.02 73.542C1186.52 73.542 1184.71 71.9521 1183.6 68.7725ZM1215.07 73.542C1212.98 73.542 1210.96 73.3734 1209 73.0361C1208.02 74.7705 1206.98 75.6377 1205.9 75.6377C1204.35 75.6377 1203.58 74.9271 1203.58 73.5059C1203.58 72.2533 1203.26 71.085 1202.61 70.001C1201.98 68.917 1201.43 68.0137 1200.95 67.291C1199.33 64.8822 1198.53 63.196 1198.53 62.2324C1198.53 61.2689 1198.8 60.5583 1199.36 60.1006C1199.91 59.6429 1200.52 59.4141 1201.2 59.4141C1202.52 59.4141 1203.72 60.474 1204.78 62.5938C1205.86 64.6895 1207.14 66.0866 1208.61 66.7852C1210.08 67.4837 1212.39 67.833 1215.54 67.833C1220.19 67.833 1223.22 66.5081 1224.61 63.8584C1225.05 63.0635 1225.26 62.1963 1225.26 61.2568C1225.26 59.3779 1224.44 58.0531 1222.81 57.2822C1221.17 56.4873 1218.63 55.9814 1215.18 55.7646C1211.74 55.5479 1209.2 55.1745 1207.56 54.6445C1202.79 53.0306 1200.4 50.1641 1200.4 46.0449C1200.4 43.5156 1201.73 41.2393 1204.38 39.2158C1207.05 37.1683 1210.96 36.1445 1216.09 36.1445C1217.17 36.1445 1218.25 36.2409 1219.34 36.4336C1219.1 35.7591 1218.98 35.193 1218.98 34.7354C1218.98 34.2777 1219.18 33.8561 1219.59 33.4707C1220 33.0612 1220.51 32.8564 1221.11 32.8564C1221.73 32.8564 1222.22 33.013 1222.55 33.3262C1222.89 33.6393 1223.28 34.2295 1223.71 35.0967C1224.14 35.9398 1224.97 37.1562 1226.2 38.7461C1227.43 40.3118 1228.19 41.3958 1228.48 41.998C1228.79 42.5762 1228.95 43.2025 1228.95 43.877C1228.95 44.5514 1228.73 45.1175 1228.3 45.5752C1227.89 46.0329 1227.34 46.2617 1226.64 46.2617C1225.31 46.2617 1224.12 45.3825 1223.06 43.624C1222.53 42.7327 1221.76 42.1185 1220.75 41.7812C1219.74 41.444 1217.98 41.2754 1215.47 41.2754C1212.97 41.2754 1210.96 41.7331 1209.44 42.6484C1207.94 43.5397 1207.2 44.5996 1207.2 45.8281C1207.2 47.0566 1207.58 47.9118 1208.35 48.3936C1209.77 49.3089 1211.99 49.8509 1215 50.0195C1220.78 50.3568 1224.97 51.3444 1227.58 52.9824C1230.2 54.6204 1231.51 57.0654 1231.51 60.3174C1231.51 64.4847 1229.92 67.7367 1226.75 70.0732C1223.57 72.3857 1219.68 73.542 1215.07 73.542ZM1282.39 50.9229C1287.71 55.0179 1290.69 57.3786 1291.31 58.0049L1292.62 59.3418C1293.36 60.0404 1293.99 60.3896 1294.49 60.3896C1295 60.3896 1295.45 60.2692 1295.83 60.0283C1296.22 59.7633 1296.67 59.3538 1297.2 58.7998C1297.76 58.2217 1298.37 57.6556 1299.05 57.1016L1307.1 50.8867L1297.24 29.6045C1296.59 28.1833 1296.07 27.1113 1295.69 26.3887C1295.33 25.666 1294.99 25.3047 1294.67 25.3047C1294.39 25.3047 1294.08 25.5697 1293.77 26.0996C1293.48 26.6055 1293.1 27.4004 1292.62 28.4844L1282.39 50.9229ZM1269.96 72.7109L1264.61 73C1262.73 73 1261.79 72.2412 1261.79 70.7236C1261.79 69.736 1262.58 68.64 1264.14 67.4355C1266.94 65.2194 1269.54 61.7747 1271.95 57.1016L1284.52 31.8086L1289 22.3057C1290.06 19.9691 1290.97 18.3551 1291.71 17.4639C1292.48 16.5485 1293.46 16.0908 1294.64 16.0908C1295.82 16.0908 1296.81 16.4883 1297.6 17.2832C1298.42 18.0781 1299.4 19.6921 1300.53 22.125L1308.44 39.0352C1315.21 52.4766 1318.81 59.5947 1319.25 60.3896L1320.58 62.8105C1321.64 64.6654 1322.38 65.7855 1322.79 66.1709C1323.2 66.5563 1323.62 66.8815 1324.05 67.1465C1325.95 68.2786 1326.91 69.2904 1326.91 70.1816C1326.91 72.0605 1325.97 73 1324.09 73L1318.63 72.7471L1311.3 73C1310.07 73 1309.1 72.7591 1308.41 72.2773C1307.71 71.7956 1307.36 71.0729 1307.36 70.1094C1307.36 68.1341 1309.55 67.1465 1313.93 67.1465C1314.2 67.1465 1314.46 67.1465 1314.73 67.1465C1314.99 67.1465 1315.26 67.1344 1315.52 67.1104C1314.87 66.1709 1314.2 64.9785 1313.5 63.5332L1309.81 56.0176L1303.02 61.293C1300.81 63.0033 1299.16 64.5208 1298.07 65.8457C1296.99 67.1465 1296 67.7969 1295.11 67.7969C1294.22 67.7969 1293.51 67.5801 1292.98 67.1465C1292.47 66.7129 1292.01 66.2552 1291.6 65.7734L1290.09 64.0391C1289.65 63.5332 1289.07 62.9912 1288.35 62.4131L1282.79 58.2578C1281.65 57.4388 1280.5 56.5596 1279.32 55.6201L1274.01 67.3271H1275.09C1277.45 67.3271 1279.16 67.5439 1280.22 67.9775C1281.28 68.387 1281.81 69.182 1281.81 70.3623C1281.81 72.1449 1280.58 73.0361 1278.13 73.0361L1269.96 72.7109ZM1346.81 65.2676C1348.38 65.2676 1349.16 66.1829 1349.16 68.0137C1349.16 69.3867 1348.27 70.6514 1346.49 71.8076C1344.73 72.9639 1342.66 73.542 1340.27 73.542C1336.25 73.542 1333.57 71.639 1332.22 67.833C1331.76 66.5322 1331.53 64.9906 1331.53 63.208V24.1123C1331.53 23.1729 1331.45 22.5827 1331.28 22.3418C1331.13 22.1009 1330.92 21.9805 1330.63 21.9805L1327.48 22.4141C1326.54 22.4141 1325.76 22.1732 1325.13 21.6914C1324.53 21.2096 1324.23 20.5352 1324.23 19.668C1324.23 17.8372 1325.53 16.7894 1328.13 16.5244C1329.82 16.3799 1331.13 16.1631 1332.07 15.874C1333.04 15.5609 1334.01 15.4043 1335 15.4043C1336.88 15.4043 1337.82 16.5605 1337.82 18.873V59.0889C1337.82 62.4613 1337.99 64.6172 1338.32 65.5566C1338.66 66.472 1339.03 67.0742 1339.44 67.3633C1339.85 67.6523 1340.48 67.7969 1341.32 67.7969C1342.19 67.7969 1342.96 67.4958 1343.63 66.8936C1344.33 66.2913 1344.88 65.8698 1345.26 65.6289C1345.65 65.388 1346.16 65.2676 1346.81 65.2676ZM1371.17 73L1364.38 72.7832C1363.36 72.7832 1362.6 72.7952 1362.1 72.8193L1360.51 72.8916C1359.3 72.9639 1358.24 73 1357.33 73C1354.99 73 1353.82 72.1087 1353.82 70.3262C1353.82 69.459 1354.19 68.7845 1354.91 68.3027C1355.65 67.821 1356.64 67.5801 1357.87 67.5801H1360.69V44.0215C1360.69 42.5762 1360.38 41.8535 1359.75 41.8535C1359.46 41.8535 1359 41.9378 1358.38 42.1064C1357.77 42.2751 1357.09 42.3594 1356.32 42.3594C1355.57 42.3594 1354.9 42.1064 1354.29 41.6006C1353.69 41.0947 1353.39 40.4082 1353.39 39.541C1353.39 37.7103 1354.69 36.6624 1357.29 36.3975C1358.91 36.2529 1360.22 36.0361 1361.23 35.7471C1362.27 35.458 1363.27 35.3135 1364.23 35.3135C1366.04 35.3135 1366.94 36.4697 1366.94 38.7822V67.5801H1369.79C1372.83 67.5801 1374.35 68.5316 1374.35 70.4346C1374.35 71.109 1374.05 71.7113 1373.44 72.2412C1372.87 72.7471 1372.11 73 1371.17 73ZM1368.28 22.9199C1368.28 25.2565 1367.29 26.7741 1365.31 27.4727C1364.76 27.6654 1363.98 27.7617 1362.97 27.7617C1361.95 27.7617 1361.03 27.3643 1360.18 26.5693C1359.34 25.7744 1358.92 24.7386 1358.92 23.4619C1358.92 22.1852 1359.35 21.1253 1360.22 20.2822C1361.11 19.4391 1362.27 19.0176 1363.69 19.0176C1365.13 19.0176 1366.25 19.403 1367.05 20.1738C1367.87 20.9206 1368.28 21.8359 1368.28 22.9199ZM1413.8 36.1445C1415.76 36.1445 1416.73 36.8311 1416.73 38.2041C1416.73 39.1436 1416.31 39.9626 1415.47 40.6611C1413.76 42.0583 1412.47 43.335 1411.6 44.4912C1410.76 45.6475 1409.85 47.3818 1408.89 49.6943C1403.54 62.6058 1400.51 70.013 1399.79 71.916C1399.57 72.5182 1399.12 73.0602 1398.45 73.542C1397.77 74.0479 1396.92 74.3008 1395.88 74.3008C1393.91 74.3008 1392.58 73.3975 1391.91 71.5908C1391.57 70.6755 1391.07 69.4108 1390.39 67.7969L1382.88 49.6943C1381.67 46.8037 1380.73 44.9368 1380.06 44.0938C1379.38 43.2266 1378.8 42.6123 1378.32 42.251L1376.7 40.9863C1375.56 40.071 1375 39.1436 1375 38.2041C1375 36.8311 1375.99 36.1445 1377.96 36.1445L1382.01 36.3975L1388.26 36.1445C1389.42 36.1445 1390.29 36.3734 1390.9 36.8311C1391.5 37.2887 1391.8 37.8548 1391.8 38.5293C1391.8 40.5768 1389.92 41.6006 1386.16 41.6006H1385.87L1396.06 66.0986L1406.14 41.6006H1405.6C1401.87 41.6006 1400 40.5768 1400 38.5293C1400 37.8548 1400.29 37.2887 1400.87 36.8311C1401.47 36.3734 1402.35 36.1445 1403.51 36.1445L1410.01 36.3975L1413.8 36.1445ZM1428.22 51.1758L1430.71 51.248C1431.53 51.2721 1434.16 51.2842 1438.59 51.2842C1443.02 51.2842 1445.93 50.9229 1447.3 50.2002C1448.67 49.4775 1449.36 48.3815 1449.36 46.9121C1449.36 45.4427 1448.53 44.1419 1446.87 43.0098C1445.2 41.8776 1443.36 41.3115 1441.34 41.3115C1437.8 41.3115 1434.88 42.2148 1432.59 44.0215C1430.31 45.8281 1428.85 48.2129 1428.22 51.1758ZM1452.47 61.6182C1454.59 61.6182 1455.65 62.5697 1455.65 64.4727C1455.65 65.3398 1455.31 66.3154 1454.63 67.3994C1453.98 68.4593 1453.02 69.4469 1451.74 70.3623C1448.76 72.4821 1444.84 73.542 1440 73.542C1435.18 73.542 1431 71.916 1427.46 68.6641C1425.7 67.0501 1424.3 65.0628 1423.24 62.7021C1422.18 60.3415 1421.65 57.752 1421.65 54.9336C1421.65 49.4414 1423.45 44.8525 1427.07 41.167C1430.68 37.4574 1435.23 35.6025 1440.72 35.6025C1445.3 35.6025 1448.93 36.7227 1451.6 38.9629C1454.3 41.179 1455.65 43.9131 1455.65 47.165C1455.65 50.417 1454.33 52.8499 1451.71 54.4639C1449.08 56.0537 1444.1 56.8486 1436.75 56.8486C1434.8 56.8486 1431.91 56.7764 1428.08 56.6318C1428.51 60.3656 1429.96 63.1719 1432.41 65.0508C1434.87 66.9056 1437.44 67.833 1440.11 67.833C1442.78 67.833 1444.89 67.5439 1446.43 66.9658C1448 66.3636 1449.12 65.3278 1449.79 63.8584C1450.49 62.3649 1451.38 61.6182 1452.47 61.6182ZM1466.45 34.7715C1465.03 34.7715 1464.32 34.1572 1464.32 32.9287C1464.32 32.0615 1464.84 31.2786 1465.87 30.5801C1467.78 29.2311 1468.73 27.8701 1468.73 26.4971C1468.73 25.6781 1468.16 24.6784 1467.03 23.498C1465.92 22.2936 1465.37 21.029 1465.37 19.7041C1465.37 18.3792 1465.76 17.3314 1466.56 16.5605C1467.38 15.7897 1468.45 15.4043 1469.77 15.4043C1471.12 15.4043 1472.27 15.9945 1473.21 17.1748C1474.17 18.3551 1474.65 19.7161 1474.65 21.2578C1474.65 25.4492 1473.53 28.9059 1471.29 31.6279C1470.23 32.9287 1469.26 33.7839 1468.37 34.1934C1467.5 34.5788 1466.86 34.7715 1466.45 34.7715ZM1479.46 34.7715C1478.04 34.7715 1477.33 34.1572 1477.33 32.9287C1477.33 32.0615 1477.84 31.2786 1478.88 30.5801C1480.78 29.2311 1481.73 27.8701 1481.73 26.4971C1481.73 25.6781 1481.17 24.6784 1480.04 23.498C1478.93 22.2936 1478.37 21.029 1478.37 19.7041C1478.37 18.3792 1478.77 17.3314 1479.57 16.5605C1480.39 15.7897 1481.46 15.4043 1482.78 15.4043C1484.13 15.4043 1485.28 15.9945 1486.21 17.1748C1487.18 18.3551 1487.66 19.7161 1487.66 21.2578C1487.66 25.4492 1486.54 28.9059 1484.3 31.6279C1483.24 32.9287 1482.26 33.7839 1481.37 34.1934C1480.51 34.5788 1479.87 34.7715 1479.46 34.7715Z" fill="white"/>
<rect x="1125" y="110" width="368" height="27" fill="white"/>
</svg>
